<svg xmlns="http://www.w3.org/2000/svg" viewBox="0 0 500 500"><g id="freepik--background-complete--inject-144"><path d="M464.07,301.4a4.32,4.32,0,1,1-4.32-4.32A4.32,4.32,0,0,1,464.07,301.4Z" style="fill:#ebebeb"></path><path d="M463.45,300c-.21.17-3-3.42-5.63-8.35s-4.62-8.89-4.43-9,2.7,3.66,5.27,8.57S463.66,299.81,463.45,300Z" style="fill:#ebebeb"></path><path d="M461.37,277.82c.23.08-.69,2.34-3.12,3.89s-4.85,1.49-4.83,1.24,2.14-.6,4.31-2S461.12,277.68,461.37,277.82Z" style="fill:#ebebeb"></path><path d="M463.24,281.89c.25.06-.57,2.35-3.05,3.69s-4.84.85-4.75.61,2.13-.22,4.29-1.44S463,281.76,463.24,281.89Z" style="fill:#ebebeb"></path><path d="M180.23,440.17a4.32,4.32,0,1,1,.25-6.11A4.33,4.33,0,0,1,180.23,440.17Z" style="fill:#ebebeb"></path><path d="M180.87,438.73c-.27,0,.47-4.54,2.33-9.79s3.41-9.42,3.64-9.36-.87,4.46-2.74,9.67S181.12,438.78,180.87,438.73Z" style="fill:#ebebeb"></path><path d="M195.75,422.21c.1.23-2.18,1.08-5,.34s-4.38-2.56-4.18-2.71,1.89,1.16,4.42,1.79S195.69,421.93,195.75,422.21Z" style="fill:#ebebeb"></path><path d="M194,426.35c.13.22-2.11,1.17-4.78.25s-3.9-3-3.66-3.08,1.6,1.42,4,2.18S194,426.08,194,426.35Z" style="fill:#ebebeb"></path><path d="M39.26,291.77a3,3,0,1,1-3-3A3,3,0,0,1,39.26,291.77Z" style="fill:#ebebeb"></path><path d="M38.82,290.77c-.14.11-2.09-2.37-3.9-5.79a50.49,50.49,0,0,1-3.07-6.26c.17-.11,1.87,2.54,3.65,5.94S39,290.66,38.82,290.77Z" style="fill:#ebebeb"></path><path d="M37.38,275.41c.16.06-.47,1.62-2.16,2.7s-3.37,1-3.35.86,1.48-.42,3-1.42S37.21,275.31,37.38,275.41Z" style="fill:#ebebeb"></path><path d="M38.68,278.24c.18,0-.39,1.62-2.11,2.56s-3.36.58-3.3.42,1.48-.15,3-1S38.52,278.14,38.68,278.24Z" style="fill:#ebebeb"></path><path d="M30.2,173.72a3,3,0,1,1-1.93-3.78A3,3,0,0,1,30.2,173.72Z" style="fill:#ebebeb"></path><path d="M30.1,172.63c-.18.07-1.27-2.9-1.93-6.71a49.24,49.24,0,0,1-1-6.9c.19-.05,1,3,1.64,6.78S30.27,172.57,30.1,172.63Z" style="fill:#ebebeb"></path><path d="M33.45,157.57c.13.11-1,1.4-2.89,1.91s-3.52-.06-3.45-.21,1.54,0,3.28-.43S33.32,157.43,33.45,157.57Z" style="fill:#ebebeb"></path><path d="M33.82,160.66c.15.09-.88,1.43-2.8,1.79s-3.38-.47-3.27-.61,1.45.31,3.14,0S33.69,160.52,33.82,160.66Z" style="fill:#ebebeb"></path><path d="M465.57,378.48a3,3,0,1,1-.09-4.24A3,3,0,0,1,465.57,378.48Z" style="fill:#ebebeb"></path><path d="M465.94,377.46c-.18,0,.14-3.17,1.2-6.88a49.7,49.7,0,0,1,2.12-6.64c.2,0-.41,3.12-1.48,6.81S466.12,377.48,465.94,377.46Z" style="fill:#ebebeb"></path><path d="M475.54,365.38c.08.15-1.46.84-3.43.45s-3.14-1.59-3-1.7,1.36.72,3.14,1.05S475.49,365.19,475.54,365.38Z" style="fill:#ebebeb"></path><path d="M474.52,368.32c.1.15-1.41.9-3.3.38s-2.82-1.9-2.66-2,1.16.91,2.83,1.34S474.47,368.13,474.52,368.32Z" style="fill:#ebebeb"></path><path d="M43.15,373.91a3.74,3.74,0,1,1-4.69-2.45A3.74,3.74,0,0,1,43.15,373.91Z" style="fill:#ebebeb"></path><path d="M42.26,372.88c-.21.3-3.54-1.86-7-5.26s-6-6.2-5.83-6.46,3.34,2.16,6.74,5.53S42.47,372.59,42.26,372.88Z" style="fill:#ebebeb"></path><path d="M39.44,354.31c.29.1-.67,3.07-3.59,5.48a8.78,8.78,0,0,1-4.31,2c-1.26.17-2-.2-2-.35s.74-.18,1.77-.54A11.92,11.92,0,0,0,35,358.78C37.66,356.63,39.09,354.11,39.44,354.31Z" style="fill:#ebebeb"></path><path d="M53.14,367.06a3.74,3.74,0,1,1-4.69-2.45A3.74,3.74,0,0,1,53.14,367.06Z" style="fill:#ebebeb"></path><path d="M52.25,366c-.21.3-3.54-1.86-7-5.26s-6-6.2-5.83-6.46,3.34,2.15,6.74,5.53S52.46,365.74,52.25,366Z" style="fill:#ebebeb"></path><path d="M41.34,356c.33.07-.4,3-3.06,5.32s-5.6,2.78-5.63,2.45,2.41-1.27,4.77-3.41S41,355.87,41.34,356Z" style="fill:#ebebeb"></path><path d="M332.59,378.59a3.74,3.74,0,1,1,.32-5.28A3.75,3.75,0,0,1,332.59,378.59Z" style="fill:#ebebeb"></path><path d="M333.16,377.36c-.35-.07.26-4,2-8.51s3.2-8.05,3.53-8-.61,3.93-2.32,8.4S333.51,377.43,333.16,377.36Z" style="fill:#ebebeb"></path><path d="M349,367.23c0,.3-3.08.63-6.47-1.06a8.73,8.73,0,0,1-3.59-3.11c-.67-1.08-.63-1.92-.48-1.94s.46.6,1.22,1.39A11.72,11.72,0,0,0,343.1,365C346.13,366.55,349,366.82,349,367.23Z" style="fill:#ebebeb"></path><path d="M342.91,384.93a3.74,3.74,0,1,1,.32-5.28A3.74,3.74,0,0,1,342.91,384.93Z" style="fill:#ebebeb"></path><path d="M343.48,383.7c-.35-.07.26-4,2-8.52s3.21-8,3.53-7.95-.61,3.93-2.31,8.4S343.83,383.77,343.48,383.7Z" style="fill:#ebebeb"></path><path d="M348.19,369.66c.07.33-2.88.84-6.11-.63s-4.81-4-4.52-4.15,2.14,1.68,5.05,3S348.18,369.28,348.19,369.66Z" style="fill:#ebebeb"></path><path d="M453.55,175.67a3.74,3.74,0,1,1,.33-5.28A3.74,3.74,0,0,1,453.55,175.67Z" style="fill:#ebebeb"></path><path d="M454.13,174.44c-.36-.07.26-4,2-8.52s3.21-8,3.53-7.95-.61,3.93-2.31,8.4S454.48,174.51,454.13,174.44Z" style="fill:#ebebeb"></path><path d="M470,164.31c0,.3-3.08.63-6.47-1.06a8.67,8.67,0,0,1-3.59-3.12c-.67-1.07-.64-1.91-.48-1.94s.46.61,1.21,1.4a11.92,11.92,0,0,0,3.45,2.5C467.1,163.62,470,163.9,470,164.31Z" style="fill:#ebebeb"></path><path d="M463.88,182a3.74,3.74,0,1,1,.32-5.28A3.75,3.75,0,0,1,463.88,182Z" style="fill:#ebebeb"></path><path d="M464.45,180.77c-.35-.06.26-4,2-8.51s3.2-8,3.53-7.95-.61,3.93-2.31,8.4S464.8,180.85,464.45,180.77Z" style="fill:#ebebeb"></path><path d="M469.16,166.74c.07.33-2.88.84-6.11-.63s-4.82-4-4.52-4.16,2.13,1.69,5.05,3S469.15,166.35,469.16,166.74Z" style="fill:#ebebeb"></path><path d="M84.53,38.11s5.74,26,8.91,25.75c4.08-.32,17.09-22.64,17.09-22.64S86.84,38.45,84.53,38.11Z" style="fill:#f5f5f5"></path><path d="M113.1,41.4s8,25.41,11.14,24.88c4-.68,15-24.07,15-24.07S115.43,41.54,113.1,41.4Z" style="fill:#ebebeb"></path><path d="M141.49,41.94s10.56,24.65,13.63,23.84c4-1,12.83-25.12,12.83-25.12S147.78,42.1,141.49,41.94Z" style="fill:#f5f5f5"></path><path d="M169.15,40.65s11.62,23.63,14.64,22.64c3.89-1.27,11.09-26.12,11.09-26.12S171.47,40.45,169.15,40.65Z" style="fill:#ebebeb"></path><path d="M196.7,36.7s14,22.29,16.9,21c3.74-1.67,8.54-26.52,8.54-26.52S199,36.25,196.7,36.7Z" style="fill:#f5f5f5"></path><path d="M224.46,30.55S240.18,52,243,50.45c3.6-2,6.55-27.44,6.55-27.44S226.71,29.93,224.46,30.55Z" style="fill:#ebebeb"></path><path d="M56.66,32.3s3.71,26.53,6.88,26.53c4.09,0,18.82-21,18.82-21S58.93,32.83,56.66,32.3Z" style="fill:#ebebeb"></path><path d="M25.42,22.42s1,26.77,4.15,27.09c4.07.42,20.86-19,20.86-19S27.63,23.17,25.42,22.42Z" style="fill:#ebebeb"></path><path d="M272.91,13.25l-.6.28-1.78.8-2.9,1.28-1.85.81-2.13.88-5,2.05-6,2.29c-1.08.43-2.21.82-3.37,1.23l-3.6,1.26c-.62.22-1.24.45-1.88.66l-2,.63-4,1.32a337.56,337.56,0,0,1-39.65,9.86c-7.57,1.36-15.56,2.58-23.88,3.53s-17,1.56-25.84,1.89l-6.62.18-6.53,0h-1.62l-1.61,0-3.21-.07-3.18-.07-3.15-.14c-2.09-.1-4.16-.15-6.21-.3l-6.09-.43c-2-.14-4-.36-6-.54l-2.92-.28L98.42,40C90.77,39.2,83.55,38,76.81,36.79s-13-2.64-18.58-4.09L54.1,31.65c-1.34-.34-2.63-.74-3.89-1.09-2.52-.72-4.91-1.37-7.1-2.09s-4.27-1.32-6.14-2l-5.12-1.77c-.76-.27-1.5-.51-2.17-.76l-1.89-.72-3-1.13L23,21.43l-.62-.24.63.22,1.83.67,3,1.11,1.89.7c.68.25,1.41.49,2.18.75L37,26.39c1.87.63,3.94,1.24,6.14,1.94s4.58,1.35,7.1,2.07c1.26.35,2.55.74,3.9,1.07l4.12,1.05c5.64,1.44,11.87,2.76,18.58,4s14,2.39,21.59,3.22l2.89.34,2.92.27c2,.18,3.94.39,6,.54l6.08.42c2,.15,4.12.2,6.21.3l3.15.14,3.18.07,3.2.06,1.61,0h1.62l6.53,0,6.61-.18c8.87-.32,17.51-1,25.83-1.88s16.29-2.16,23.86-3.51a338,338,0,0,0,39.63-9.8l4-1.31,2-.62,1.88-.66,3.61-1.25c1.16-.41,2.29-.8,3.37-1.22l6-2.27,5-2,2.14-.86,1.85-.81,2.91-1.25,1.79-.77Z" style="fill:#e0e0e0"></path><path d="M431,39.8s-5.52,25-8.56,24.75C418.48,64.25,406,42.79,406,42.79S428.74,40.13,431,39.8Z" style="fill:#f5f5f5"></path><path d="M403.5,43s-7.71,24.43-10.72,23.92c-3.88-.65-14.44-23.14-14.44-23.14S401.26,43.09,403.5,43Z" style="fill:#ebebeb"></path><path d="M376.2,43.48s-10.15,23.7-13.1,22.92c-3.8-1-12.33-24.15-12.33-24.15S370.15,43.64,376.2,43.48Z" style="fill:#f5f5f5"></path><path d="M349.62,42.24S338.44,65,335.54,64c-3.74-1.22-10.66-25.11-10.66-25.11S347.38,42,349.62,42.24Z" style="fill:#ebebeb"></path><path d="M323.13,38.44s-13.47,21.43-16.25,20.19c-3.59-1.6-8.2-25.49-8.2-25.49S320.93,38,323.13,38.44Z" style="fill:#f5f5f5"></path><path d="M296.44,32.53s-15.11,20.58-17.79,19.13c-3.47-1.87-6.3-26.38-6.3-26.38S294.28,31.94,296.44,32.53Z" style="fill:#ebebeb"></path><path d="M457.76,34.21s-3.57,25.51-6.62,25.51c-3.93,0-18.09-20.2-18.09-20.2S455.57,34.72,457.76,34.21Z" style="fill:#ebebeb"></path><path d="M485.94,25.36s-.68,25.45-3.71,25.79c-3.91.45-20.25-18-20.25-18S474.65,29.31,485.94,25.36Z" style="fill:#ebebeb"></path><path d="M249.86,15.9l.58.27,1.71.76,2.79,1.24,1.78.78,2,.84,4.81,2L269.37,24c1,.4,2.12.78,3.24,1.17l3.46,1.22c.6.21,1.2.43,1.81.63l1.88.61,3.89,1.27a322.74,322.74,0,0,0,38.11,9.48c7.28,1.31,15,2.48,23,3.39s16.31,1.5,24.84,1.81l6.36.18,6.28,0h1.56l1.55,0,3.08-.07,3.06-.06,3-.13c2-.11,4-.16,6-.3l5.86-.41c1.93-.14,3.83-.35,5.72-.52l2.81-.27,2.77-.33c7.36-.8,14.29-2,20.77-3.11S450.83,36,456.25,34.6l4-1c1.3-.33,2.53-.71,3.75-1.05,2.42-.69,4.71-1.31,6.82-2s4.1-1.27,5.9-1.88L481.6,27c.74-.26,1.44-.49,2.09-.74l1.82-.69,2.84-1.08,1.75-.67.59-.24-.6.21-1.76.65-2.85,1.06-1.82.68c-.65.24-1.35.47-2.09.72l-4.92,1.69c-1.81.6-3.79,1.19-5.91,1.86s-4.4,1.3-6.83,2c-1.21.33-2.45.71-3.74,1l-4,1c-5.41,1.39-11.41,2.66-17.86,3.9s-13.4,2.3-20.75,3.09l-2.77.33L412,42c-1.89.17-3.79.38-5.72.52l-5.85.4c-2,.15-4,.19-6,.3l-3,.13-3.05.06-3.08.06-1.55,0H382.2l-6.27,0-6.36-.18c-8.52-.31-16.83-.94-24.83-1.81s-15.66-2.07-22.93-3.37a325.94,325.94,0,0,1-38.11-9.43l-3.89-1.25-1.87-.6-1.81-.63L272.66,25c-1.12-.39-2.2-.76-3.24-1.17l-5.79-2.18-4.82-1.95-2.06-.83L255,18.1l-2.79-1.21-1.73-.74Z" style="fill:#e0e0e0"></path></g><g id="freepik--Floor--inject-144"><path d="M488.75,474c0,.15-107.8.26-240.74.26S7.25,474.16,7.25,474,115,473.75,248,473.75,488.75,473.87,488.75,474Z" style="fill:#263238"></path></g><g id="freepik--musical-notes--inject-144"><path d="M387.67,100.94a3,3,0,1,1,.44-4.22A3,3,0,0,1,387.67,100.94Z" style="fill:#263238"></path><path d="M388.18,100c-.18,0,.52-3.13,2-6.68A51.82,51.82,0,0,1,393.13,87c.19.06-.79,3.05-2.31,6.58S388.35,100,388.18,100Z" style="fill:#263238"></path><path d="M399.19,89.16c.06.17-1.56.66-3.46,0s-2.92-2-2.78-2.06,1.26.89,3,1.43S399.16,89,399.19,89.16Z" style="fill:#263238"></path><path d="M397.82,92c.08.16-1.51.71-3.33,0s-2.57-2.24-2.4-2.29,1.05,1,2.65,1.68S397.78,91.77,397.82,92Z" style="fill:#263238"></path><path d="M317.09,77.26a3.42,3.42,0,1,1-1.46-4.61A3.43,3.43,0,0,1,317.09,77.26Z" style="fill:#263238"></path><path d="M317.17,76c-.2,0-.87-3.51-.89-7.92s0-7.93.18-7.95.56,3.56.57,7.94S317.38,76,317.17,76Z" style="fill:#263238"></path><path d="M323.8,59.72c.14.14-1.33,1.39-3.61,1.59s-3.95-.73-3.84-.89,1.72.35,3.77.14S323.69,59.53,323.8,59.72Z" style="fill:#263238"></path><path d="M323.63,63.26c.16.13-1.25,1.44-3.49,1.48s-3.7-1.18-3.55-1.31,1.57.62,3.53.55S323.51,63.08,323.63,63.26Z" style="fill:#263238"></path><path d="M143.69,77.21a3.42,3.42,0,1,1-1.46-4.61A3.43,3.43,0,0,1,143.69,77.21Z" style="fill:#263238"></path><path d="M143.77,76c-.2,0-.87-3.51-.89-7.92s0-7.93.19-7.95.55,3.56.56,7.94S144,75.94,143.77,76Z" style="fill:#263238"></path><path d="M150.41,59.67c.13.14-1.34,1.39-3.61,1.59s-4-.73-3.84-.89,1.71.35,3.77.14S150.29,59.48,150.41,59.67Z" style="fill:#263238"></path><path d="M150.24,63.21c.15.13-1.26,1.44-3.49,1.48s-3.71-1.17-3.56-1.31,1.57.62,3.54.55S150.12,63,150.24,63.21Z" style="fill:#263238"></path><path d="M319.18,199.82a3,3,0,1,1,.43-4.22A3,3,0,0,1,319.18,199.82Z" style="fill:#263238"></path><path d="M319.68,198.86c-.18-.05.52-3.13,2-6.69a49.52,49.52,0,0,1,2.92-6.32c.19.06-.8,3.05-2.31,6.58S319.85,198.9,319.68,198.86Z" style="fill:#263238"></path><path d="M330.69,188.05c.06.16-1.56.65-3.46,0s-2.92-2-2.78-2.06,1.26.88,3,1.43S330.66,187.86,330.69,188.05Z" style="fill:#263238"></path><path d="M329.32,190.84c.08.16-1.51.72-3.32,0s-2.57-2.23-2.41-2.29,1.05,1,2.66,1.68S329.29,190.65,329.32,190.84Z" style="fill:#263238"></path><path d="M247.09,97.47a3,3,0,1,1-3-3A3,3,0,0,1,247.09,97.47Z" style="fill:#263238"></path><path d="M246.66,96.47c-.15.11-2.1-2.38-3.9-5.79a50.49,50.49,0,0,1-3.07-6.26c.17-.11,1.86,2.54,3.65,5.94S246.8,96.36,246.66,96.47Z" style="fill:#263238"></path><path d="M245.22,81.11c.16,0-.48,1.62-2.16,2.7s-3.37,1-3.35.86,1.48-.42,3-1.42S245.05,81,245.22,81.11Z" style="fill:#263238"></path><path d="M246.52,83.93c.17,0-.4,1.63-2.12,2.56s-3.35.59-3.29.43,1.47-.16,3-1S246.35,83.84,246.52,83.93Z" style="fill:#263238"></path><path d="M168.3,201.1a3,3,0,1,1-3-3A3,3,0,0,1,168.3,201.1Z" style="fill:#263238"></path><path d="M167.86,200.1c-.14.11-2.1-2.37-3.9-5.79a50.49,50.49,0,0,1-3.07-6.26c.17-.11,1.87,2.54,3.65,5.94S168,200,167.86,200.1Z" style="fill:#263238"></path><path d="M166.42,184.74c.16.06-.48,1.62-2.16,2.7s-3.37,1-3.35.86,1.48-.42,3-1.41S166.25,184.64,166.42,184.74Z" style="fill:#263238"></path><path d="M167.72,187.57c.17,0-.4,1.62-2.12,2.56s-3.35.58-3.29.42,1.47-.15,3-1S167.55,187.47,167.72,187.57Z" style="fill:#263238"></path><path d="M173.25,129.14a3.74,3.74,0,1,1,.95-5.2A3.73,3.73,0,0,1,173.25,129.14Z" style="fill:#263238"></path><path d="M174,128c-.34-.11.73-3.94,3-8.22s4.14-7.61,4.45-7.49-1.07,3.83-3.29,8.07S174.31,128.1,174,128Z" style="fill:#263238"></path><path d="M190.88,119.8c0,.3-3.14.26-6.3-1.81a8.8,8.8,0,0,1-3.2-3.52c-.53-1.15-.4-2-.25-2s.39.66,1.05,1.53a11.86,11.86,0,0,0,3.12,2.9C188.13,118.78,191,119.4,190.88,119.8Z" style="fill:#263238"></path><path d="M182.76,136.66a3.74,3.74,0,1,1,.94-5.21A3.75,3.75,0,0,1,182.76,136.66Z" style="fill:#263238"></path><path d="M183.47,135.5c-.34-.11.73-3.93,3-8.22s4.14-7.61,4.45-7.48-1.07,3.83-3.29,8.07S183.81,135.62,183.47,135.5Z" style="fill:#263238"></path><path d="M189.81,122.12c0,.34-3,.49-6-1.35s-4.31-4.52-4-4.66,1.93,1.93,4.67,3.55S189.84,121.74,189.81,122.12Z" style="fill:#263238"></path><path d="M75.13,113.43a3.74,3.74,0,1,1-2.34-4.74A3.72,3.72,0,0,1,75.13,113.43Z" style="fill:#263238"></path><path d="M75,112.08c-.34.12-1.76-3.59-2.52-8.36s-1.21-8.58-.89-8.66,1.42,3.71,2.17,8.44S75.36,112,75,112.08Z" style="fill:#263238"></path><path d="M83.72,95.43c.17.25-2.36,2.08-6.13,2.3a8.77,8.77,0,0,1-4.67-.92c-1.12-.61-1.51-1.35-1.38-1.45s.7.29,1.75.61a11.82,11.82,0,0,0,4.23.46C80.91,96.26,83.55,95.06,83.72,95.43Z" style="fill:#263238"></path><path d="M87.24,113.81a3.74,3.74,0,1,1-2.34-4.74A3.74,3.74,0,0,1,87.24,113.81Z" style="fill:#263238"></path><path d="M87.13,112.46c-.34.11-1.76-3.6-2.52-8.37s-1.21-8.57-.89-8.66,1.42,3.72,2.17,8.44S87.47,112.35,87.13,112.46Z" style="fill:#263238"></path><path d="M84.24,97.93c.23.26-2.08,2.16-5.61,2.49s-6.16-1.06-6-1.36,2.69.41,5.86.07S84.05,97.61,84.24,97.93Z" style="fill:#263238"></path><path d="M314.22,143.53a3.74,3.74,0,1,1-4.69-2.45A3.74,3.74,0,0,1,314.22,143.53Z" style="fill:#263238"></path><path d="M313.33,142.5c-.21.3-3.54-1.86-7-5.26s-6-6.2-5.83-6.46,3.34,2.16,6.74,5.53S313.54,142.21,313.33,142.5Z" style="fill:#263238"></path><path d="M310.51,123.93c.29.1-.67,3.07-3.59,5.48a8.74,8.74,0,0,1-4.31,2c-1.26.17-2-.2-2-.35s.74-.18,1.77-.54a11.81,11.81,0,0,0,3.69-2.13C308.73,126.26,310.16,123.73,310.51,123.93Z" style="fill:#263238"></path><path d="M324.21,136.68a3.74,3.74,0,1,1-4.69-2.45A3.74,3.74,0,0,1,324.21,136.68Z" style="fill:#263238"></path><path d="M323.32,135.65c-.21.3-3.54-1.86-7-5.26s-6.05-6.2-5.84-6.46,3.35,2.15,6.74,5.53S323.53,135.36,323.32,135.65Z" style="fill:#263238"></path><path d="M312.41,125.64c.33.07-.4,3-3.06,5.32s-5.6,2.78-5.63,2.45,2.41-1.27,4.77-3.41S312.06,125.49,312.41,125.64Z" style="fill:#263238"></path></g><g id="freepik--character-3--inject-144"><path d="M326.21,290.58c-.26.25-3.91,6.85-5.42,9.27S319,314.48,318.88,317s6.53,13.16,6.53,13.16a2.1,2.1,0,0,0,1.42-2.17c-.13-1.7-2.9-5.85-2.62-6.94a2.64,2.64,0,0,1,1.15-1.58s4.59,6.76,5.33,6a4.71,4.71,0,0,0,.93-2.15,2.82,2.82,0,0,0,1.41-1.66,4.17,4.17,0,0,0,1.75-2.16c.38-1.34-2.57-5.33-2.57-5.33l-.54-5.44s.45-4.06-.69-5.62-1.89-1.19-1.89-1.19l4.62-6Z" style="fill:#ae7461"></path><path d="M359.72,201s-8.73,3.65-12,15c-2.18,7.56-6.89,44.55-7.3,45.31-3.56,6.7-19.59,33.9-19.59,33.9l22.31,19.67c8-5.64,7.51-35.15,7.79-39.35C351.58,266,360,248.9,360,248.9Z" style="fill:#38B6FF"></path><path d="M328.11,301.69s.09.06.21.22a2.59,2.59,0,0,1,.36.81,4.91,4.91,0,0,1-.44,3.2c-.52,1.25-1.52,2.59-1.64,4.32-.09.86,0,1.79-.09,2.78a5.34,5.34,0,0,1-1,3,3.17,3.17,0,0,1-1,.84l-.24.12-.11-.24a21.51,21.51,0,0,1-2.1-9.52,18.69,18.69,0,0,1,.26-2.91,4.14,4.14,0,0,1,.25-1c.09,0-.21,1.5-.15,3.95a22.54,22.54,0,0,0,2.21,9.29l-.36-.11a2.58,2.58,0,0,0,.82-.7A5,5,0,0,0,326,313c.07-.95,0-1.89.12-2.8.18-1.89,1.25-3.24,1.79-4.43a5,5,0,0,0,.58-3A6.87,6.87,0,0,0,328.11,301.69Z" style="fill:#6f4439"></path><path d="M327.24,315.35A19.28,19.28,0,0,1,329.8,319a19,19,0,0,1,2.13,3.91,19.46,19.46,0,0,1-2.57-3.64A19.24,19.24,0,0,1,327.24,315.35Z" style="fill:#6f4439"></path><path d="M329.18,313.42a14.82,14.82,0,0,1,2.55,3.67,14.35,14.35,0,0,1,1.81,4.08,28.7,28.7,0,0,1-2.26-3.83A28.11,28.11,0,0,1,329.18,313.42Z" style="fill:#6f4439"></path><path d="M362.62,155.2c-3.25,7.42-7.38,16.46-5.93,24.43.41,2.26,1.21,4.59.55,6.79-.91,3.06-4.38,5-4.89,8.11-.45,2.75,1.52,5.24,2.59,7.82,1.45,3.48,1.25,7.41.79,11.16s-1.13,7.53-.57,11.26,2.66,7.5,6.18,8.86l15.26-6.94-2.9-64.78Z" style="fill:#263238"></path><path d="M440.93,232.52c-2.13-4.14-3.28-8.87-6.38-12.34-2.6-2.9-6.48-4.81-8-8.41-1.84-4.46.75-9.65-.39-14.34-1.3-5.3-6.78-8.28-10.15-12.57-7.18-9.15-8.56-22.63-12.93-31.07L382.2,201q7.67,28.88,17.71,57.06a51.35,51.35,0,0,0,31.23-3.14c-.86-2.14-1.71-4.29-2.57-6.43a7.61,7.61,0,0,0,5.82,2.77c3.24,0,6.22-1.67,8.84-3.56a48.4,48.4,0,0,0,8.48-7.82C447.11,240.58,443.06,236.65,440.93,232.52Z" style="fill:#263238"></path><path d="M403.87,155.18a24.43,24.43,0,0,0-16.61-13.07c-4.2-1-6.12-.44-9.33-.25a13.61,13.61,0,0,0-8.62,3.43,22.79,22.79,0,0,0-6.47,9.26,63.87,63.87,0,0,0-2.94,11.34,21.3,21.3,0,0,0,1.34,11.51l9.37,3.71c5.33,1.29,10.73,2.6,16.22,2.47s11.15-1.89,14.91-5.89C407,172.14,407.4,161.94,403.87,155.18Z" style="fill:#263238"></path><path d="M395.24,153.32l-11.89-7.84-3.47-.32c-7.62-1.55-14.63,5.75-16,11.9-1.49,6.84-3,15.25-3,20.52.08,10.61,8.57,13.26,8.57,13.26l-1,10-3.06,2.63L360,225.07l15.58,5.06L394.47,195l-4.88-.06,8.35-37.39A3.69,3.69,0,0,0,395.24,153.32Z" style="fill:#ae7461"></path><path d="M376.67,178.38a2.22,2.22,0,0,0-.47-1.49,2.26,2.26,0,0,0-2.65-.71,3,3,0,0,0-1.71,2.54h0a2.78,2.78,0,0,0,1.7,1.52l.36.08a2.44,2.44,0,0,0,1.76-.3A2.19,2.19,0,0,0,376.67,178.38Z" style="fill:#6f4439"></path><path d="M365.65,166.4a1.34,1.34,0,0,0,1.08,1.53,1.28,1.28,0,0,0,1.55-1,1.34,1.34,0,0,0-1.08-1.53A1.27,1.27,0,0,0,365.65,166.4Z" style="fill:#263238"></path><path d="M365.53,161c.13.2,1.25-.39,2.68-.17s2.37,1.09,2.56.94,0-.4-.44-.81a3.75,3.75,0,0,0-2-1,3.58,3.58,0,0,0-2.18.36C365.65,160.59,365.46,160.88,365.53,161Z" style="fill:#263238"></path><path d="M372.31,174a9.79,9.79,0,0,0-2.26-.78c-.36-.09-.7-.21-.72-.47a1.8,1.8,0,0,1,.41-1q.7-1.25,1.5-2.61c2.1-3.73,3.68-6.82,3.53-6.91s-2,2.88-4.08,6.61l-1.46,2.64a2.16,2.16,0,0,0-.41,1.4,1,1,0,0,0,.52.63,3.1,3.1,0,0,0,.61.18A9.94,9.94,0,0,0,372.31,174Z" style="fill:#263238"></path><path d="M369.49,190.82a26.67,26.67,0,0,0,14.44-1.59s-4.79,6.62-15,4.08Z" style="fill:#6f4439"></path><path d="M376.37,175.57c-.23,0-.47,1.5-2,2.4s-3.12.48-3.17.7.33.36,1,.48a3.89,3.89,0,0,0,2.63-.49,3.37,3.37,0,0,0,1.55-2C376.59,176,376.47,175.58,376.37,175.57Z" style="fill:#263238"></path><path d="M367,156.12c.19.39,1.32.32,2.58.62s2.27.8,2.6.52c.15-.13.06-.49-.33-.91a4,4,0,0,0-2-1,3.84,3.84,0,0,0-2.21.13C367.19,155.64,367,155.94,367,156.12Z" style="fill:#263238"></path><path d="M381.2,168.9a1.35,1.35,0,0,1-1.53,1.09,1.29,1.29,0,0,1-1.14-1.45,1.35,1.35,0,0,1,1.53-1.09A1.3,1.3,0,0,1,381.2,168.9Z" style="fill:#263238"></path><path d="M384.78,164.41c-.19.14-1-.79-2.48-1.06s-2.6.25-2.72,0,.17-.37.69-.61a3.63,3.63,0,0,1,2.21-.25,3.52,3.52,0,0,1,1.94,1.06C384.79,164,384.88,164.34,384.78,164.41Z" style="fill:#263238"></path><path d="M384.88,159.7c-.35.27-1.38-.27-2.69-.54s-2.48-.25-2.67-.63c-.09-.19.15-.48.7-.69a4.38,4.38,0,0,1,4.32.95C384.94,159.2,385,159.57,384.88,159.7Z" style="fill:#263238"></path><path d="M392.59,174.35c.12-.77,1.29-2.45,2.07-2.46,2.08,0,5.73.71,5,5.89-1,7.06-7.92,4.58-7.9,4.37S392.18,177,392.59,174.35Z" style="fill:#ae7461"></path><path d="M394.06,179.85s.11.11.31.23a1.23,1.23,0,0,0,.92.16,3.08,3.08,0,0,0,1.8-2.53,4.08,4.08,0,0,0-.08-1.82,1.47,1.47,0,0,0-.79-1.08.63.63,0,0,0-.78.24c-.12.18-.1.33-.14.33s-.13-.14,0-.42a.7.7,0,0,1,.34-.4.9.9,0,0,1,.71-.08,1.73,1.73,0,0,1,1.12,1.28,4.27,4.27,0,0,1,.15,2c-.26,1.42-1.18,2.65-2.24,2.79a1.32,1.32,0,0,1-1.1-.35C394.05,180,394,179.86,394.06,179.85Z" style="fill:#6f4439"></path><path d="M394.94,172l-2.16,1.47c-6.14-8.92-17.29-30.39-16.68-29.12a22.72,22.72,0,0,1,11.19,1.09c5.5,2.15,15.72,7.25,14.15,13.93S394.94,172,394.94,172Z" style="fill:#263238"></path><path d="M363.66,152.8a77.65,77.65,0,0,0,18.78.43c6.39-.56,12.74-1.35,19.16-1.43a.63.63,0,0,0,0-1.25c-12.6.16-25,3-37.61,1-.79-.12-1.13,1.08-.33,1.2Z" style="fill:#38B6FF"></path><path d="M380.07,153.26a5.42,5.42,0,0,0-1.5-4,1.67,1.67,0,0,0-1.75-.6,1.18,1.18,0,0,0-.63,1,2.15,2.15,0,0,0,.26,1.16,3.82,3.82,0,0,0,3.34,2.07,4.83,4.83,0,0,0-3.36,1.09,1.17,1.17,0,0,0-.52,1c.1.46.66.65,1.12.66a3.21,3.21,0,0,0,3.07-2.34,3,3,0,0,0,1.71,2.78,1.88,1.88,0,0,0,1.19.15,1.11,1.11,0,0,0,.82-.81,1.48,1.48,0,0,0-.39-1.1,3.88,3.88,0,0,0-2.89-1.44,1.67,1.67,0,0,0,1.44-.31,3.19,3.19,0,0,0,.91-1.2,1.83,1.83,0,0,0,.11-1.71,1.34,1.34,0,0,0-1.62-.44,2.14,2.14,0,0,0-1.14,1.35,6,6,0,0,0-.25,1.8" style="fill:#fff"></path><path d="M380.82,152.81a.72.72,0,1,1-.72-.72A.71.71,0,0,1,380.82,152.81Z" style="fill:#38B6FF"></path><path d="M390.59,152.4a3.88,3.88,0,0,0-2.26-2.09,1.18,1.18,0,0,0-1.32.19.83.83,0,0,0-.1.82,1.7,1.7,0,0,0,.55.67,2.77,2.77,0,0,0,2.83.25,3.41,3.41,0,0,0-1.81,1.79.8.8,0,0,0,0,.83.77.77,0,0,0,.93.06,2.32,2.32,0,0,0,1.22-2.51,2.13,2.13,0,0,0,2,1.24,1.31,1.31,0,0,0,.81-.29.8.8,0,0,0,.27-.79,1.09,1.09,0,0,0-.61-.58,2.79,2.79,0,0,0-2.33,0,1.18,1.18,0,0,0,.82-.67,2.16,2.16,0,0,0,.2-1.07,1.33,1.33,0,0,0-.49-1.14,1,1,0,0,0-1.18.24,1.58,1.58,0,0,0-.3,1.25,4.66,4.66,0,0,0,.42,1.24" style="fill:#fff"></path><path d="M390.93,151.86a.52.52,0,0,1-.23.7.53.53,0,0,1-.69-.23.52.52,0,1,1,.92-.47Z" style="fill:#38B6FF"></path><path d="M400.79,151.17a3.89,3.89,0,0,0-2.27-2.09,1.2,1.2,0,0,0-1.32.18.85.85,0,0,0-.09.83,1.51,1.51,0,0,0,.54.66,2.77,2.77,0,0,0,2.84.26,3.43,3.43,0,0,0-1.82,1.79.85.85,0,0,0,0,.83.79.79,0,0,0,.94.06,2.31,2.31,0,0,0,1.21-2.51,2.16,2.16,0,0,0,2,1.24,1.38,1.38,0,0,0,.82-.29.78.78,0,0,0,.26-.79,1,1,0,0,0-.61-.58,2.79,2.79,0,0,0-2.33,0,1.24,1.24,0,0,0,.83-.67A2.3,2.3,0,0,0,402,149a1.33,1.33,0,0,0-.49-1.14,1,1,0,0,0-1.19.24,1.61,1.61,0,0,0-.3,1.24,4.63,4.63,0,0,0,.43,1.25" style="fill:#fff"></path><path d="M401.13,150.63a.51.51,0,0,1-.23.69.52.52,0,1,1,.23-.69Z" style="fill:#38B6FF"></path><path d="M368.19,152a3.93,3.93,0,0,0-2.27-2.09,1.18,1.18,0,0,0-1.32.19.83.83,0,0,0-.09.82,1.59,1.59,0,0,0,.54.67,2.77,2.77,0,0,0,2.84.25,3.43,3.43,0,0,0-1.82,1.79.85.85,0,0,0,0,.83.79.79,0,0,0,.94.06,2.31,2.31,0,0,0,1.21-2.51,2.14,2.14,0,0,0,2,1.24,1.31,1.31,0,0,0,.81-.29.78.78,0,0,0,.27-.79,1.06,1.06,0,0,0-.61-.58,2.79,2.79,0,0,0-2.33,0,1.21,1.21,0,0,0,.83-.67,2.27,2.27,0,0,0,.19-1.07,1.35,1.35,0,0,0-.48-1.14,1,1,0,0,0-1.19.24,1.58,1.58,0,0,0-.3,1.25,4.66,4.66,0,0,0,.42,1.24" style="fill:#fff"></path><path d="M368.52,151.41a.52.52,0,0,1-.22.7.54.54,0,0,1-.7-.23.52.52,0,1,1,.92-.47Z" style="fill:#38B6FF"></path><path d="M409.31,124.09c0-.42-.63-10.85.2-14s10.79-13.13,12.87-15.2,16.18-5,16.18-5a2.41,2.41,0,0,1-.69,2.91C436.35,94,430.68,95,430,96.1a3.08,3.08,0,0,0-.42,2.22s9.31-1.53,9.22-.28a5.51,5.51,0,0,1-1.06,2.49,3.23,3.23,0,0,1-.27,2.48,4.86,4.86,0,0,1-.42,3.18c-.83,1.39-6.5,2.08-6.5,2.08l-5,3.87s-3,3.59-5.26,3.87-2.49-.64-2.49-.64l7,27.83Z" style="fill:#ae7461"></path><path d="M418.25,112.74s.45-.23,1.22-.67a10.9,10.9,0,0,0,2.86-2.4,10.45,10.45,0,0,0,1.4-2.16,9.66,9.66,0,0,0,.52-1.33,15.67,15.67,0,0,1,.51-1.5,2.32,2.32,0,0,1,1.24-1.26,9.24,9.24,0,0,1,1.7-.44,9.76,9.76,0,0,0,3.35-.88,3.76,3.76,0,0,0,1.52-1.57,1.47,1.47,0,0,0-.08-1.77l.18,0a91.45,91.45,0,0,0-9.15,2l-2.66.67a3.82,3.82,0,0,1-1,.18,4.27,4.27,0,0,1,.93-.35c.6-.2,1.49-.48,2.61-.81a73.44,73.44,0,0,1,9.17-2.22l.1,0,.08.07a1.47,1.47,0,0,1,.55,1.17,2.67,2.67,0,0,1-.29,1.22,4.29,4.29,0,0,1-1.73,1.8,5.85,5.85,0,0,1-1.78.64l-1.74.3a8.51,8.51,0,0,0-1.6.39,1.8,1.8,0,0,0-1,1,11.14,11.14,0,0,0-.51,1.44,10.52,10.52,0,0,1-2.08,3.59,10.13,10.13,0,0,1-3,2.34,7.49,7.49,0,0,1-1,.4A1.48,1.48,0,0,1,418.25,112.74Z" style="fill:#6f4439"></path><path d="M427.83,103.36a6.07,6.07,0,0,1,.24,2.75,6.28,6.28,0,0,1-.54,2.71,9.23,9.23,0,0,1,0-2.74A9.37,9.37,0,0,1,427.83,103.36Z" style="fill:#6f4439"></path><path d="M435.73,104a18.93,18.93,0,0,1-3.61,1.16,18.23,18.23,0,0,1-3.69.93,18.2,18.2,0,0,1,7.3-2.09Z" style="fill:#6f4439"></path><path d="M437.9,101.07a44.15,44.15,0,0,1-9.33,2.37,23,23,0,0,1,4.6-1.44A22.76,22.76,0,0,1,437.9,101.07Z" style="fill:#6f4439"></path><path d="M426.6,96.28c.13,0,.53.63.78,1.55s.27,1.72.13,1.74-.38-.7-.63-1.6S426.46,96.33,426.6,96.28Z" style="fill:#6f4439"></path><path d="M430.32,141.55l-21-22.45v35l-15.49,39.25-5,4.28,18.9,16.9,5-18.25S420,181.08,424.47,170c2.18-5.43,4.12-6.68,5.85-14.92Z" style="fill:#38B6FF"></path><path d="M396,325.46,395.93,340s1.79,39.05,1.79,42.15S378.88,474,378.88,474H426.8c.64-23.42-8.6-91.74-8.6-91.74s4.31-28.8,5.76-39.53,6.07-29.13-2.06-52-23.55-28-23.55-28l-41.18,11.84s-4.92,28.91-1.73,48.69,8.44,33.5,9.72,44.52,3.93,22-4.49,33.73c-12.95,18-33,72.25-33,72.25l46,.28,13-69.31a111.08,111.08,0,0,0,2.5-22c.21-16.46,1.1-47.29,1.39-57.15.05-1.75.75-14.6,2.52-14.61C393.11,310.92,396.19,315.28,396,325.46Z" style="fill:#455a64"></path><g style="opacity:0.1"><path d="M384.54,417.79c-.88.47-1.75,1-2.6,1.48-2.12,1.31-4.13,2.77-6.14,4.24a84.78,84.78,0,0,1-11.91,7.81q-1.29.44-2.61.75-1,0-1.92,0c-.8-.19-1.59-.4-2.37-.66s-1.48-.81-2.19-1.27c-.51-.47-1-1-1.48-1.47a22.71,22.71,0,0,1-1.39-2.45,11.21,11.21,0,0,0-2.37-3.14c-4.9,10.34-9.81,22.09-13.73,31.9.68.53,1.38,1.06,2.08,1.57a40.37,40.37,0,0,0,8.86,4.44,26.61,26.61,0,0,0,6,1.68,38.71,38.71,0,0,0,10,.7,40.19,40.19,0,0,0,10.49-2.15c1.18-.45,2.35-.94,3.51-1.44Z"></path></g><g style="opacity:0.1"><path d="M411.74,446.81c3.24,2.57,6.41,5.23,9.73,7.71a44.45,44.45,0,0,0,4.67,3c-.87-12.66-2.42-27.89-3.93-41.24a33.84,33.84,0,0,0-8.57-3.36A36.3,36.3,0,0,0,392,414.42l-.28.11c-2.82,13.91-6.1,29.85-8.62,42,2.09-1.28,4.09-2.69,6.07-4.13,4.1-3,8.15-6.06,12.7-8.31a25.63,25.63,0,0,1,2.72-.79h1c.4.1.8.22,1.19.34A38.49,38.49,0,0,1,411.74,446.81Z"></path></g><g style="opacity:0.1"><path d="M389.19,383.4c.08-6.74.28-15.84.5-25-2.65-2.15-5.29-4.32-8-6.36a45.06,45.06,0,0,0-13.2-6.75,15.05,15.05,0,0,0-8.36.06c2.24,9,4.31,16.39,5,22.87.44,3.82,1,7.63,1.3,11.47,6.8,5.52,13.52,11.38,22.16,13.67C389,390.08,389.15,386.74,389.19,383.4Z"></path></g><g style="opacity:0.1"><path d="M411.12,392.63a75.55,75.55,0,0,0,7.81-3.56c-.46-3.56-.74-5.64-.74-5.64s3.21-21.74,5-34.7c-1.05.53-2.08,1.08-3.09,1.69-2.13,1.29-4.16,2.73-6.18,4.2-4.1,3-8.15,6.05-12.69,8.31-.9.31-1.8.57-2.73.79h-1l-.57-.14c.4,9.35.77,18.33.77,19.76,0,.66-.81,5.07-2.09,11.64A35.33,35.33,0,0,0,411.12,392.63Z"></path></g><g style="opacity:0.1"><path d="M378.68,317.69a64.32,64.32,0,0,0,10.06-4.86c2.12-1.31,4.13-2.76,6.14-4.23a84,84,0,0,1,11.91-7.82q1.29-.43,2.61-.75c.64,0,1.28,0,1.92,0a24.43,24.43,0,0,1,2.37.65c.75.39,1.48.81,2.19,1.27.52.47,1,1,1.48,1.47a22.71,22.71,0,0,1,1.39,2.45c1.38,2.86,4.65,5.36,7.75,6.64a82.26,82.26,0,0,0-4.5-21.9c-3.76-10.74-9.07-17.61-13.71-21.91l-.37,0a40.28,40.28,0,0,0-10.49,2.15,61,61,0,0,0-9.74,4.59c-2.13,1.3-4.16,2.74-6.18,4.2-4.1,3-8.15,6.06-12.69,8.31a25.81,25.81,0,0,1-2.73.79h-1c-.41-.1-.8-.22-1.2-.34a40.29,40.29,0,0,1-4.93-3.14L356.07,283c-1.06,9-2.27,23.29-1.13,35.57.69.22,1.39.41,2.1.58A36.37,36.37,0,0,0,378.68,317.69Z"></path></g><path d="M392.3,305.64a5.3,5.3,0,0,1-.32-1.18c-.19-.87-.43-1.95-.71-3.24-.61-2.73-1.51-6.49-2.67-10.6s-2.37-7.77-3.29-10.42c-.43-1.24-.79-2.29-1.09-3.13a5,5,0,0,1-.34-1.17,6,6,0,0,1,.53,1.1c.32.72.75,1.77,1.25,3.08,1,2.62,2.28,6.28,3.44,10.4s2,7.91,2.53,10.67c.26,1.37.44,2.49.55,3.27A6.07,6.07,0,0,1,392.3,305.64Z" style="fill:#263238"></path><path d="M392,304.24s.32-.35.77-1A8.1,8.1,0,0,0,394,300c.53-2.93-.27-7-1.19-11.48a105,105,0,0,0-3.08-11.25c-.46-1.33-.84-2.45-1.15-3.34a6.67,6.67,0,0,1-.39-1.25,6.05,6.05,0,0,1,.58,1.17c.33.77.8,1.89,1.31,3.3a84.18,84.18,0,0,1,3.24,11.26c.48,2.24.86,4.38,1.11,6.36a17.1,17.1,0,0,1-.07,5.29,7.83,7.83,0,0,1-1.4,3.29,5,5,0,0,1-.67.72C392.13,304.18,392,304.25,392,304.24Z" style="fill:#263238"></path><path d="M388.84,198.35l-20.69,20.32.41-20.32L359.72,201s-13.93,18.9-13,29.48c1,11.82,8.79,38.25,8.79,38.25l41.6-10.59,10.67-43.59Z" style="fill:#38B6FF"></path><path d="M367.19,241.61a7.55,7.55,0,0,1-1.23-2.1,19.85,19.85,0,0,1-1.61-5.66,20.23,20.23,0,0,1,.14-5.89,7.69,7.69,0,0,1,.68-2.34,25.25,25.25,0,0,0,2,16Z" style="fill:#263238"></path><path d="M355.25,267.31a2.32,2.32,0,0,1-.17-.53c-.1-.4-.24-.91-.4-1.53-.34-1.33-.87-3.24-1.58-5.6s-1.62-5.15-2.58-8.24-2-6.56-2.71-10.25a48.48,48.48,0,0,1-1-10.57,32.64,32.64,0,0,1,1.29-8.57,23.89,23.89,0,0,1,2.3-5.37c.33-.61.67-1,.86-1.34a2.61,2.61,0,0,1,.34-.43c.05,0-.37.66-1,1.87a25.81,25.81,0,0,0-2.13,5.37,33.72,33.72,0,0,0-1.16,8.48,49.53,49.53,0,0,0,1,10.46c.74,3.66,1.73,7.1,2.66,10.21s1.8,5.91,2.47,8.28,1.15,4.31,1.43,5.65c.15.68.24,1.21.3,1.56A2.29,2.29,0,0,1,355.25,267.31Z" style="fill:#263238"></path><path d="M367.78,198.35a61.79,61.79,0,0,0,10.69,30.81.12.12,0,0,0,.21,0,93.47,93.47,0,0,0,8.71-29.64c0-.16-.23-.16-.25,0a92.43,92.43,0,0,1-6.26,24.14c-.43,1.05-.88,2.08-1.35,3.11a12.55,12.55,0,0,1-.67,1.44c-.36.6-.41.5-.79-.07q-1.62-2.44-3-5A60.68,60.68,0,0,1,368,198.35c0-.16-.26-.16-.25,0Z" style="fill:#263238"></path><path d="M379.66,243.16a7.64,7.64,0,1,1,7.65-7.64A7.65,7.65,0,0,1,379.66,243.16Zm0-14.28a6.64,6.64,0,1,0,6.65,6.64A6.65,6.65,0,0,0,379.66,228.88Z" style="fill:#263238"></path><path d="M378.13,228.93c.65,4.47,1.28,9,2.22,13.38.17.79,1.38.45,1.21-.33-.95-4.42-1.57-8.91-2.22-13.38-.12-.79-1.32-.46-1.21.33Z" style="fill:#263238"></path><path d="M375.06,240.54l5-5-.75.1,6.21,3.49c.71.39,1.34-.69.64-1.08L380,234.58a.65.65,0,0,0-.76.1l-5,5a.63.63,0,0,0,.88.89Z" style="fill:#263238"></path><path d="M413.34,249.82c-5-6.58-10.17-13.72-10.49-22-.18-4.7,1.27-9.43.5-14.07s-3.64-8.61-5.84-12.77-3.65-26.76-1.66-31l-5.16-1.95c-3.39,7.06-4.46,36.87-.91,43.85,1.54,3,3.72,5.86,4.23,9.22.76,5.11-2.53,10.11-2,15.25.7,7,8.31,12.69,6.9,19.6A43.13,43.13,0,0,0,413.34,249.82Z" style="fill:#263238"></path><polygon points="357.1 276.95 354.48 266.26 397.99 254.37 400.25 263.85 357.1 276.95" style="fill:#263238"></polygon><path d="M378,274.76a8.86,8.86,0,1,1,8.86-8.86A8.87,8.87,0,0,1,378,274.76Zm0-15.71a6.86,6.86,0,1,0,6.86,6.85A6.87,6.87,0,0,0,378,259.05Z" style="fill:#e0e0e0"></path></g><g id="freepik--character-2--inject-144"><path d="M215.11,168.37c-.42-5.49,2.25-10.6,4.69-15.53a96,96,0,0,1,6.35-10.46c-2.83-4.85-.38-12.54,2.88-15s6.83-1.75,7.36,2.29l4.19,8.68q3,18.81,6,37.6c1.23,7.6-4.15,10.34-9.18,16.17h0a11.28,11.28,0,0,0-7.56,5.45c-1.67,2.89-3.67,6.24-3.75,7-4.83-.37-13.34-3.13-13.62-8-.58-10.18,6.54-15.17,6.66-17.45C219.39,175.33,215.41,172.23,215.11,168.37Z" style="fill:#263238"></path><path d="M228.2,145.36a19.6,19.6,0,0,1,19.48-18.05h1c10.93.62,16.52,10.25,15.6,21.17l-2.89,42.06h0l-17.72,45.12-12.05-43,5.82-1.28,0-8.86s-10.51-1.61-10.66-12.12C226.75,165.29,227.45,154.83,228.2,145.36Z" style="fill:#ffbf9d"></path><path d="M237.41,182.48a25.48,25.48,0,0,0,13.76-4.06S248,186,237.46,185.07Z" style="fill:#ff9a6c"></path><path d="M232.41,156a1.5,1.5,0,0,0,1.45,1.51,1.44,1.44,0,0,0,1.54-1.36,1.5,1.5,0,0,0-1.45-1.51A1.43,1.43,0,0,0,232.41,156Z" style="fill:#263238"></path><path d="M230.47,150.5c.18.2,1.32-.65,2.93-.65s2.8.81,3,.61-.11-.44-.62-.81a4.05,4.05,0,0,0-2.38-.73,4,4,0,0,0-2.34.76C230.54,150.06,230.37,150.41,230.47,150.5Z" style="fill:#263238"></path><path d="M245.61,156.37a1.49,1.49,0,0,0,1.45,1.51,1.43,1.43,0,0,0,1.55-1.35,1.51,1.51,0,0,0-1.45-1.51A1.43,1.43,0,0,0,245.61,156.37Z" style="fill:#263238"></path><path d="M239.18,154.49c-.05,0,0-.6-.31-1.63a6.73,6.73,0,0,0-2.47-3.61,6.6,6.6,0,0,0-6.22-.9,6.46,6.46,0,0,0-3,2.28,6.53,6.53,0,0,0,0,7.71,6.49,6.49,0,0,0,3,2.29,6.6,6.6,0,0,0,6.22-.9,6.73,6.73,0,0,0,2.47-3.61c.28-1,.26-1.63.31-1.63a1.34,1.34,0,0,1,0,.43,5.72,5.72,0,0,1-.15,1.25,6.73,6.73,0,0,1-2.45,3.85,6.85,6.85,0,0,1-2.92,1.34,7,7,0,0,1-3.69-.28,6.91,6.91,0,0,1-3.27-2.43,7,7,0,0,1,0-8.32A6.91,6.91,0,0,1,230,147.9a7,7,0,0,1,3.69-.28,6.84,6.84,0,0,1,5.37,5.19,5.71,5.71,0,0,1,.15,1.24A1.38,1.38,0,0,1,239.18,154.49Z" style="fill:#455a64"></path><g style="opacity:0.30000000000000004"><circle cx="232.41" cy="154.49" r="6.78"></circle></g><g style="opacity:0.30000000000000004"><circle cx="247.71" cy="154.49" r="6.78"></circle></g><path d="M254.49,154.49c-.05,0,0-.6-.31-1.63a6.7,6.7,0,0,0-2.48-3.61,6.58,6.58,0,0,0-6.21-.9,6.46,6.46,0,0,0-3,2.28,6.53,6.53,0,0,0,0,7.71,6.49,6.49,0,0,0,3,2.29,6.58,6.58,0,0,0,6.21-.9,6.7,6.7,0,0,0,2.48-3.61c.28-1,.26-1.63.31-1.63a1.21,1.21,0,0,1,0,.43,5,5,0,0,1-.14,1.25,6.73,6.73,0,0,1-2.45,3.85,6.85,6.85,0,0,1-2.92,1.34,7,7,0,0,1-3.69-.28,6.91,6.91,0,0,1-3.27-2.43,7,7,0,0,1,0-8.32,6.91,6.91,0,0,1,3.27-2.43,7,7,0,0,1,3.69-.28,6.84,6.84,0,0,1,5.37,5.19,5,5,0,0,1,.14,1.24A1.25,1.25,0,0,1,254.49,154.49Z" style="fill:#455a64"></path><path d="M241.2,151.82c-.11.08-.62-.53-1.43-.49s-1.25.7-1.37.63-.05-.25.16-.53a1.58,1.58,0,0,1,1.18-.62,1.6,1.6,0,0,1,1.25.5C241.22,151.57,241.25,151.79,241.2,151.82Z" style="fill:#455a64"></path><path d="M246.34,150.77c.19.2,1.33-.65,2.94-.65s2.8.81,3,.61-.11-.44-.62-.81a4.06,4.06,0,0,0-2.39-.73,4,4,0,0,0-2.33.76C246.42,150.33,246.25,150.68,246.34,150.77Z" style="fill:#263238"></path><path d="M240.51,162.76a11.22,11.22,0,0,0-2.63-.47c-.41,0-.8-.12-.87-.4a2.06,2.06,0,0,1,.27-1.22c.39-1,.79-2,1.22-3.15,1.68-4.47,2.9-8.15,2.72-8.22s-1.7,3.51-3.38,8c-.41,1.11-.79,2.16-1.16,3.17a2.37,2.37,0,0,0-.21,1.62,1,1,0,0,0,.68.6,2.63,2.63,0,0,0,.7.09A10.39,10.39,0,0,0,240.51,162.76Z" style="fill:#263238"></path><path d="M245.26,163.87c-.26,0-.26,1.74-1.76,3s-3.36,1-3.38,1.3.42.34,1.21.36a4.43,4.43,0,0,0,2.82-1,3.78,3.78,0,0,0,1.36-2.5C245.58,164.29,245.38,163.86,245.26,163.87Z" style="fill:#263238"></path><path d="M245.91,144.44c.16.44,1.78.23,3.67.45s3.43.74,3.68.35c.11-.19-.15-.6-.77-1a6.28,6.28,0,0,0-2.73-1,6.06,6.06,0,0,0-2.87.35C246.19,143.89,245.85,144.23,245.91,144.44Z" style="fill:#263238"></path><path d="M231.05,145.83c.29.36,1.4,0,2.74,0s2.47.24,2.73-.14c.11-.19-.07-.56-.56-.9a4,4,0,0,0-4.41.14C231.08,145.27,230.93,145.65,231.05,145.83Z" style="fill:#263238"></path><path d="M226.82,144.51c.22-4-2.33-6.52,0-9.79-1-.09.75-2.39,0-3.08,2-5.75,5.73-6.69,11.77-7.52s8.92-3.21,14.41-.57c1.73.83,7,5.35,7,8.37,0,.17,0,.08,0,.08a12.53,12.53,0,0,1,3.45,1.41,9.26,9.26,0,0,1,3.45,4.92c.44,1.45.05,3,0,4.48,1.56,1.43,3.45,2.62,4,4.62s-.53,4.26-.15,6.36c.54,3,3.72,4.49,4.36,10.08,1.05,9.12-3.41,9.43-5.37,13.58-.81,1.69,0,2.39.9,3.21,2.9,2.63,7.71,5.7,3.4,12.51l-13-4.12a3.71,3.71,0,0,1-2.81-5,25.81,25.81,0,0,0,1.12-6.83c.16-3.95-2.64-7.47-3-11.41-.26-3.07,1-6,1.88-9a6.39,6.39,0,0,0,.17-3,13.82,13.82,0,0,0-1.8-4.62,14.81,14.81,0,0,1-2-9.71l.64-5.52-1.52-.76s-3.11-1.37-7.25,1.35c-1.87,1.23-4.19.77-6.22.57a8.32,8.32,0,0,0-6.06,1.7,6.7,6.7,0,0,0-1.35,1.46c-1.9,2.92-1.83,4.57-3,7.84a15.73,15.73,0,0,1-2.26,4.29c-1.71,2.26-3.66,5.57-2.8,8.62C223.69,154.8,226.58,148.89,226.82,144.51Z" style="fill:#263238"></path><path d="M262.73,156.26c.18-.08,7.22-2.15,7,5s-7.38,5.49-7.39,5.28S262.73,156.26,262.73,156.26Z" style="fill:#ffbf9d"></path><path d="M264,163.92s.13.09.34.2a1.24,1.24,0,0,0,.93,0,3.1,3.1,0,0,0,1.52-2.73,4.09,4.09,0,0,0-.3-1.81,1.43,1.43,0,0,0-.91-1,.63.63,0,0,0-.75.32c-.1.2-.06.34-.1.35s-.15-.12-.09-.42a.85.85,0,0,1,.3-.44.91.91,0,0,1,.7-.16,1.74,1.74,0,0,1,1.27,1.15,4.27,4.27,0,0,1,.38,2c-.09,1.44-.87,2.78-1.92,3a1.32,1.32,0,0,1-1.14-.22C264,164.1,264,163.93,264,163.92Z" style="fill:#ff9a6c"></path><path d="M257.64,134.57h0Z" style="fill:#263238"></path><path d="M227.83,205.4a.79.79,0,0,1-.27,0,2.23,2.23,0,0,1-.72-.31,3.64,3.64,0,0,1-1.38-2.62A6.78,6.78,0,0,1,227,198c1.05-1.51,2.68-3,3.29-5.18a11.6,11.6,0,0,0-.59-7.28,37,37,0,0,0-4.44-7.37c-1.72-2.51-3.49-5.37-3.93-8.78a14.11,14.11,0,0,1,.39-5.12,30.87,30.87,0,0,1,1.82-4.94c1.44-3.21,3-6.32,3.45-9.59s-.06-6.47-.14-9.53a15.3,15.3,0,0,1,1.79-8.5,14.83,14.83,0,0,1,5.44-5.29,7.47,7.47,0,0,1,6.12-.87,5.65,5.65,0,0,1,3.21,3.4,5,5,0,0,1,.21,3,3.71,3.71,0,0,1-.27.73,1.2,1.2,0,0,1-.13.23s.16-.32.3-1a5.15,5.15,0,0,0-.3-2.88,5.44,5.44,0,0,0-3.11-3.19,7.2,7.2,0,0,0-5.85.91A14.62,14.62,0,0,0,229,132a14.9,14.9,0,0,0-1.68,8.26c.09,3,.61,6.26.17,9.62s-2,6.54-3.49,9.73a31.32,31.32,0,0,0-1.79,4.86,13.78,13.78,0,0,0-.39,4.93c.42,3.26,2.12,6.07,3.83,8.57a37.67,37.67,0,0,1,4.45,7.49,12,12,0,0,1,.54,7.54c-.69,2.32-2.37,3.78-3.42,5.24a6.69,6.69,0,0,0-1.58,4.25A3.55,3.55,0,0,0,226.9,205,2.36,2.36,0,0,0,227.83,205.4Z" style="fill:#455a64"></path><path d="M246.43,123.36c0-.06.65,0,1.48.54a4.28,4.28,0,0,1,.43,6.8c-.76.67-1.39.78-1.4.73s.52-.32,1.14-1a4.19,4.19,0,0,0-.39-6.25C247,123.6,246.4,123.44,246.43,123.36Z" style="fill:#455a64"></path><path d="M255,126.26c.05,0,.24.29.34.86a4.27,4.27,0,0,1-.3,2.21,4.13,4.13,0,0,1-1.38,1.75c-.48.33-.83.41-.86.35a8.35,8.35,0,0,0,1.76-2.31A8.71,8.71,0,0,0,255,126.26Z" style="fill:#455a64"></path><path d="M264.35,192s.25,0,.7-.17a3.73,3.73,0,0,0,1.67-1.14,5.21,5.21,0,0,0,1.23-2.93,10,10,0,0,0-.77-4.21,47.82,47.82,0,0,1-1.86-5,7.91,7.91,0,0,1-.23-3,8.71,8.71,0,0,1,1-3,43.54,43.54,0,0,1,4-5.49,15.1,15.1,0,0,0,1.76-3,6.94,6.94,0,0,0,.6-3.45,5.8,5.8,0,0,0-1.42-3.15,16.54,16.54,0,0,0-2.59-2.36,31.92,31.92,0,0,1-2.64-2.25,8.52,8.52,0,0,1-1.88-2.8,14.72,14.72,0,0,1-.63-6.12,28.16,28.16,0,0,0,0-5.27,7.16,7.16,0,0,0-1.61-3.89,5.59,5.59,0,0,0-2.72-1.68,3.93,3.93,0,0,0-2,0c-.45.14-.66.28-.68.25a1.92,1.92,0,0,1,.65-.34,3.69,3.69,0,0,1,2.1-.13,5.69,5.69,0,0,1,2.88,1.68,7.27,7.27,0,0,1,1.76,4,27,27,0,0,1,.05,5.34,14.58,14.58,0,0,0,.64,5.92,7.94,7.94,0,0,0,1.79,2.63,30.25,30.25,0,0,0,2.61,2.2,16.81,16.81,0,0,1,2.66,2.43,6.29,6.29,0,0,1,1.55,3.43,7.48,7.48,0,0,1-.64,3.7,15.31,15.31,0,0,1-1.83,3.12,45.58,45.58,0,0,0-3.94,5.41,8.25,8.25,0,0,0-1,2.88,7.77,7.77,0,0,0,.2,2.85,48.34,48.34,0,0,0,1.79,5,10.16,10.16,0,0,1,.71,4.36,5.32,5.32,0,0,1-1.37,3,3.61,3.61,0,0,1-1.79,1.11A2.13,2.13,0,0,1,264.35,192Z" style="fill:#455a64"></path><path d="M262.28,189.63a1.31,1.31,0,0,1-.59-.22,2.61,2.61,0,0,1-1.07-1.43,4.44,4.44,0,0,1,.06-2.83c.31-1.08.83-2.2,1.13-3.54a16,16,0,0,0-.68-9.39c-.62-1.69-1.82-3.19-2.57-5.11a5,5,0,0,1-.19-3.13,11.56,11.56,0,0,1,1.47-2.81,6.18,6.18,0,0,0,1.06-2.78,8.92,8.92,0,0,0-.28-2.91,21.45,21.45,0,0,1-1-5.67,28.4,28.4,0,0,1,.77-5.16,20.71,20.71,0,0,0,.54-4.43,7.85,7.85,0,0,0-.78-3.52,6.12,6.12,0,0,0-1.74-2.11,5.53,5.53,0,0,0-2.16-.91,2.08,2.08,0,0,1,.62,0,4.28,4.28,0,0,1,1.65.7,6,6,0,0,1,1.88,2.13,7.87,7.87,0,0,1,.9,3.65,20.39,20.39,0,0,1-.49,4.52,29.9,29.9,0,0,0-.71,5.08,20.79,20.79,0,0,0,1,5.55,9.81,9.81,0,0,1,.3,3.08,6.75,6.75,0,0,1-1.14,3,11.72,11.72,0,0,0-1.41,2.68,4.44,4.44,0,0,0,.17,2.81c.68,1.8,1.91,3.36,2.53,5.12a16.13,16.13,0,0,1,.6,9.65c-.33,1.36-.89,2.51-1.21,3.53a4.3,4.3,0,0,0-.15,2.69,2.64,2.64,0,0,0,.94,1.41C262.08,189.56,262.29,189.61,262.28,189.63Z" style="fill:#455a64"></path><path d="M264.34,156.07a48.14,48.14,0,0,1-5-1.07c-2.73-.59-5-.9-5-1.05a17,17,0,0,1,5.07.54A16.86,16.86,0,0,1,264.34,156.07Z" style="fill:#455a64"></path><path d="M225.77,142.54c13.74.08,27.48-.41,41.23-.37a.63.63,0,0,0,0-1.25c-13.75,0-27.49.45-41.23.37a.63.63,0,0,0,0,1.25Z" style="fill:#38B6FF"></path><path d="M225.63,142.05c13.57-1.74,27.36-3.48,41-1.56.79.11,1.13-1.1.33-1.21-13.78-1.93-27.64-.23-41.34,1.52-.79.1-.8,1.35,0,1.25Z" style="fill:#38B6FF"></path><path d="M267.08,140.3a11.39,11.39,0,0,0,5.57-6.43,2.73,2.73,0,0,0,.16-2.18,1.44,1.44,0,0,0-2-.38,6.67,6.67,0,0,0-1.7,1.48,10.44,10.44,0,0,0-1.33,1.85,10.56,10.56,0,0,0-1.37,4.84c0,.81,1.22.8,1.25,0a9.35,9.35,0,0,1,2.9-6.39c.14-.13,1-1,1.16-.77s-.07.53-.1.64c-.09.29-.18.58-.29.86a9.63,9.63,0,0,1-1.79,3,10,10,0,0,1-3.11,2.42c-.71.36-.08,1.44.64,1.08Z" style="fill:#38B6FF"></path><path d="M267.69,139.43c-1.16-2.15-2.44-4.41-4.58-5.72a1.79,1.79,0,0,0-2-.19c-.68.49-.52,1.31-.19,1.95a8.66,8.66,0,0,0,2.3,2.7,24.72,24.72,0,0,0,3.53,2.28c.7.39,1.33-.69.63-1.08a14.75,14.75,0,0,1-4.79-3.59,5.14,5.14,0,0,1-.72-1.24c0-.13,0,0,0,0h0l.13,0a2.44,2.44,0,0,1,.69.38,8.26,8.26,0,0,1,2.09,2.08,26.6,26.6,0,0,1,1.85,3.07c.38.71,1.46.08,1.08-.63Z" style="fill:#38B6FF"></path><path d="M237.29,444.28l.92,19.27s-19,7.43-19.15,11l36.86-.48L255.69,444Z" style="fill:#263238"></path><path d="M249.59,461.78a1.52,1.52,0,0,1,1.06,1.73A1.45,1.45,0,0,1,249,464.6a1.61,1.61,0,0,1-1.11-1.84,1.49,1.49,0,0,1,1.87-.93" style="fill:#e0e0e0"></path><path d="M255.92,474.08l-.14-3-35.29,1.6s-1.63.75-1.43,1.92Z" style="fill:#455a64"></path><path d="M237.61,463.37c0,.18.91.25,1.8.83s1.38,1.34,1.54,1.26-.11-1.12-1.21-1.8S237.57,463.2,237.61,463.37Z" style="fill:#fff"></path><path d="M233.77,465c0,.18.74.48,1.36,1.25s.81,1.58,1,1.57.28-1.05-.51-2S233.77,464.87,233.77,465Z" style="fill:#fff"></path><path d="M231.63,469.77c.16,0,.4-.88-.07-1.87s-1.32-1.39-1.4-1.23.46.68.83,1.5S231.45,469.76,231.63,469.77Z" style="fill:#fff"></path><path d="M237.88,459c.08.17.9-.09,1.92,0s1.81.38,1.91.22-.68-.8-1.88-.85S237.79,458.81,237.88,459Z" style="fill:#fff"></path><path d="M282.76,445.37l2,23.26-3.65,18.85a2.39,2.39,0,0,0,2,2.83h0a2.3,2.3,0,0,0,2-.75c3.29-3.63,15.31-17.08,15.07-18.77-.28-2-.5-24.67-.5-24.67Z" style="fill:#263238"></path><path d="M283.13,490.31l17-21.09.06,1a3.61,3.61,0,0,1-.69,2.38c-1.35,1.83-5.17,6.81-14.27,17a2.32,2.32,0,0,1-2.09.75Z" style="fill:#455a64"></path><g style="opacity:0.6000000000000001"><path d="M294.94,462a1.46,1.46,0,0,0-.27,1.91,1.35,1.35,0,0,0,1.86.29,1.54,1.54,0,0,0,.28-2,1.39,1.39,0,0,0-2-.08" style="fill:#fff"></path></g><path d="M287.73,479.79c-.13.08-.72-1.11-2.13-1.68a7,7,0,0,0-2.67-.34s.25-.25.79-.37a3.74,3.74,0,0,1,3.71,1.57C287.73,479.43,287.78,479.77,287.73,479.79Z" style="fill:#fff"></path><path d="M286.29,483a20.26,20.26,0,0,0-2.09-.87,20.11,20.11,0,0,0-2.26-.15,2.59,2.59,0,0,1,2.37-.35C285.69,482,286.41,483,286.29,483Z" style="fill:#fff"></path><path d="M290.52,475.6a23.9,23.9,0,0,0-3.15-1.57,24.15,24.15,0,0,0-3.45-.58,5.12,5.12,0,0,1,3.61.1A5.29,5.29,0,0,1,290.52,475.6Z" style="fill:#fff"></path><path d="M290.49,468.48c-.05.14-1.35-.31-3-.27s-2.94.54-3,.4a5.75,5.75,0,0,1,6-.13Z" style="fill:#fff"></path><path d="M290.08,461.64a11.23,11.23,0,0,0-3.13-.36,11.51,11.51,0,0,0-3,1s.19-.35.7-.7a5,5,0,0,1,2.24-.78,5,5,0,0,1,2.35.32C289.82,461.33,290.11,461.58,290.08,461.64Z" style="fill:#fff"></path><path d="M286.91,460a1.94,1.94,0,0,1-.08-.88,6.13,6.13,0,0,1,.54-2.35,2.71,2.71,0,0,1,1.06-1.37,1,1,0,0,1,1.08.15,1.56,1.56,0,0,1,.43,1,3.36,3.36,0,0,1-2.71,3.31,3.82,3.82,0,0,1-3.92-1.8,1.36,1.36,0,0,1-.13-1.12.91.91,0,0,1,.94-.56,3.31,3.31,0,0,1,1.56.7,6.93,6.93,0,0,1,1.68,1.7c.32.48.43.77.4.79a10.6,10.6,0,0,0-2.28-2.19,3.07,3.07,0,0,0-1.38-.58.48.48,0,0,0-.51.31.92.92,0,0,0,.13.73,3.42,3.42,0,0,0,3.41,1.52,2.93,2.93,0,0,0,2.35-2.78,1.2,1.2,0,0,0-.27-.73.53.53,0,0,0-.6-.08,2.48,2.48,0,0,0-.92,1.14A9.36,9.36,0,0,0,286.91,460Z" style="fill:#fff"></path><path d="M220,286.7a84.27,84.27,0,0,0-1.78,24.37c.21,2.7,4.41,43,8.4,81.13,3.68,35.16,7.17,69.3,7.17,68.41L259,459.55l-6.53-134.68,1.9.42S267.1,382.73,268.14,392c.93,8.36,12.32,74.06,12.32,74.06l21.93-.24L294.24,381,286.34,304l-3-22.44Z" style="fill:#263238"></path><path d="M272.05,384.76a15,15,0,0,1,17.56-6.13,2,2,0,0,1,1.36,1.12,2,2,0,0,1-.72,1.75,16.07,16.07,0,0,1-17.54,3.84" style="fill:#ffbf9d"></path><path d="M288.22,304.68l-12-72.5,8.62-36-20.35-7.58-.65-.24-1.94-.18-19.28,33.6-8-30.27h0l-19.09,4.08a50.76,50.76,0,0,0-3.22,14.15c-.13,2.26.46,13.32.17,25.69-.65,27.54.46,69.29.46,69.29l.55,10s25.56-1.18,36-2.79S288.22,304.68,288.22,304.68Z" style="fill:#455a64"></path><path d="M293,203.69a11.24,11.24,0,0,0-7.33-7.31l-6.84-2.53a5.33,5.33,0,0,0-6.35,3.32,4.76,4.76,0,0,0-.19,2l3.51,30.28a4.36,4.36,0,0,1,0,.51L276,255a4.71,4.71,0,0,1-.78,2.63l-11.84,17.92,19.59,7.2c2.3-1,5.28-2,7.35-5.42,4.08-6.76,8-15.13,9.07-19.61,2.15-8.79.43-16.51,1.29-22.52C301.32,230.83,295.91,212.92,293,203.69Z" style="fill:#455a64"></path><path d="M293.29,258a22.42,22.42,0,0,0-2-2.25,10.51,10.51,0,0,0-13.27-.85,22,22,0,0,0-2.27,2,2.64,2.64,0,0,1,.46-.68,9.07,9.07,0,0,1,1.62-1.56,10.38,10.38,0,0,1,13.68.88,8.84,8.84,0,0,1,1.41,1.75A2.61,2.61,0,0,1,293.29,258Z" style="fill:#263238"></path><path d="M296.4,239.08c0,.09-1.62.13-4.14.78A23.47,23.47,0,0,0,277,252.21c-1.16,2.33-1.54,3.92-1.62,3.89a4.33,4.33,0,0,1,.24-1.12,19.52,19.52,0,0,1,1.09-2.91,22.47,22.47,0,0,1,15.48-12.52,20.5,20.5,0,0,1,3.07-.47A4.74,4.74,0,0,1,296.4,239.08Z" style="fill:#263238"></path><path d="M335.46,262.3a10.2,10.2,0,0,0-8.91-7.29c-4.86-.28-9.42,3.15-14.26,2.63-1.74-.18-3.43-.84-5.18-.86-5,0-7.46,2-7.5,3.77l.59,11.89c.13,1.47,4.13,3,6.9,3.05,1.48,0,2.94.45,4.35,0a19.14,19.14,0,0,1,3.44-1c1.95-.2,3.8.8,5.68,1.37a12.35,12.35,0,0,0,11.51-2.42A11.15,11.15,0,0,0,335.46,262.3Z" style="fill:#ae7461"></path><path d="M203.14,245.59c-6.76-4.57-16.47-8.35-24.61-9-2.76-.21-5.43-.72-8.43-.46-13.9,1.17-27.26,14-27.66,31.91-.26,11.76,6.4,35.26,28.28,40.28a35.71,35.71,0,0,0,18.76-1,122.63,122.63,0,0,0,12.71-4.9A22,22,0,0,1,215.47,301c6.62,1.31,16.43,1.47,24.06-1.17,14.13-4.9,17.93-14.37,16.81-25.65-.89-9-1.82-21.13-13.32-28.41-6.28-4-15.51-6.86-28.17-1.13C211,246.38,206.08,247.59,203.14,245.59Z" style="fill:#6f4439"></path><path d="M200,246.23a23.92,23.92,0,0,1-8.06-3.86,33.37,33.37,0,0,0-21.78-6.22c-13.89,1.14-27.54,13.3-27.93,30.89-.25,11.35,1.54,32.23,22.5,37.7a36.21,36.21,0,0,0,19.95-.67,123.64,123.64,0,0,0,13-4.91,21.15,21.15,0,0,1,12.68-1.39c6.61,1.32,17,2.48,24.37-1.08,11.6-5.6,16.56-14.2,14.93-25-1.34-8.81-1.07-20.08-11.07-27.38-6-4.35-15.4-4.21-28.06,1.4A16.13,16.13,0,0,1,200,246.23Z" style="fill:#ae7461"></path><path d="M214.83,270.53a13.47,13.47,0,1,1-12.47-14.4A13.47,13.47,0,0,1,214.83,270.53Z" style="fill:#263238"></path><path d="M150.6,262.91l168.84-3.07a6.29,6.29,0,0,1,6.49,6.15h0a6.31,6.31,0,0,1-6.14,6.45L150,275.69C148,271.58,149,266.68,150.6,262.91Z" style="fill:#ae7461"></path><path d="M312.41,272.58c0,.14-30.49.9-68.1,1.69s-68.12,1.33-68.12,1.19,30.48-.89,68.11-1.69S312.4,272.44,312.41,272.58Z" style="fill:#6f4439"></path><path d="M308.69,259.88c0,.14-30.49.94-68.1,1.79s-68.11,1.43-68.11,1.29,30.48-.94,68.1-1.79S308.69,259.75,308.69,259.88Z" style="fill:#6f4439"></path><path d="M269,273a33.68,33.68,0,0,1-.63-5.78,33.73,33.73,0,0,1-.13-5.82,33.72,33.72,0,0,1,.63,5.79A33.61,33.61,0,0,1,269,273Z" style="fill:#263238"></path><path d="M278.8,272.73a33.68,33.68,0,0,1-.63-5.78,33.72,33.72,0,0,1-.13-5.82,35,35,0,0,1,.63,5.79A34.86,34.86,0,0,1,278.8,272.73Z" style="fill:#263238"></path><path d="M288.6,272.44a33.68,33.68,0,0,1-.63-5.78,33.72,33.72,0,0,1-.13-5.82,33.68,33.68,0,0,1,.63,5.78A33.72,33.72,0,0,1,288.6,272.44Z" style="fill:#263238"></path><path d="M298.41,272.15a33.68,33.68,0,0,1-.63-5.78,33.72,33.72,0,0,1-.13-5.82,34.92,34.92,0,0,1,.63,5.78A33.72,33.72,0,0,1,298.41,272.15Z" style="fill:#263238"></path><path d="M308.21,271.86a33.72,33.72,0,0,1-.63-5.79,33.61,33.61,0,0,1-.13-5.81,33.68,33.68,0,0,1,.63,5.78A33.73,33.73,0,0,1,308.21,271.86Z" style="fill:#263238"></path><path d="M318,271.57a33.89,33.89,0,0,1-.63-5.79,33.61,33.61,0,0,1-.13-5.81,33.68,33.68,0,0,1,.63,5.78A33.73,33.73,0,0,1,318,271.57Z" style="fill:#263238"></path><path d="M312.31,255.07a1.3,1.3,0,1,1-1.21-1.39A1.31,1.31,0,0,1,312.31,255.07Z" style="fill:#e0e0e0"></path><path d="M316.56,254.48a1.3,1.3,0,1,1-1.2-1.39A1.3,1.3,0,0,1,316.56,254.48Z" style="fill:#e0e0e0"></path><path d="M321.24,253.84a1.3,1.3,0,1,1-1.2-1.39A1.3,1.3,0,0,1,321.24,253.84Z" style="fill:#e0e0e0"></path><path d="M311.48,258.7c-.14,0-.35-.8-.48-1.83s-.13-1.88,0-1.89.35.8.48,1.83S311.62,258.68,311.48,258.7Z" style="fill:#e0e0e0"></path><path d="M315.83,258.6c-.14,0-.36-.8-.49-1.83s-.12-1.87,0-1.89.35.8.48,1.83S316,258.58,315.83,258.6Z" style="fill:#e0e0e0"></path><path d="M320.48,257.79c-.14,0-.36-.8-.49-1.83a3.84,3.84,0,0,1,0-1.89c.14,0,.36.8.49,1.83A3.84,3.84,0,0,1,320.48,257.79Z" style="fill:#e0e0e0"></path><path d="M319.93,277.91a1.3,1.3,0,1,1,1,1.57A1.3,1.3,0,0,1,319.93,277.91Z" style="fill:#e0e0e0"></path><path d="M315.63,277.79a1.3,1.3,0,1,1,2.53.61,1.3,1.3,0,0,1-2.53-.61Z" style="fill:#e0e0e0"></path><path d="M310.91,277.66a1.3,1.3,0,1,1,2.53.61,1.31,1.31,0,0,1-1.57,1A1.3,1.3,0,0,1,310.91,277.66Z" style="fill:#e0e0e0"></path><path d="M321.34,274.47c.13,0,.21.84.17,1.88s-.18,1.87-.32,1.86-.22-.84-.18-1.88S321.2,274.46,321.34,274.47Z" style="fill:#e0e0e0"></path><path d="M317,273.85c.14,0,.22.85.18,1.88s-.18,1.87-.32,1.87-.22-.85-.18-1.89S316.89,273.84,317,273.85Z" style="fill:#e0e0e0"></path><path d="M312.32,273.88a3.92,3.92,0,0,1,.17,1.89c0,1-.18,1.87-.32,1.86s-.22-.85-.18-1.88S312.18,273.88,312.32,273.88Z" style="fill:#e0e0e0"></path><path d="M278.51,248.72c-.13,0-.69-5.83-1.26-13.05s-.93-13.07-.8-13.08.69,5.83,1.26,13S278.63,248.71,278.51,248.72Z" style="fill:#263238"></path><path d="M292,274.45s0,.11-.09.31-.19.48-.38.83a14,14,0,0,1-1.89,2.81,15.72,15.72,0,0,1-3.83,3.25,15,15,0,0,1-11.92,1.69,16,16,0,0,1-4.58-2,14,14,0,0,1-2.6-2.17,7.31,7.31,0,0,1-.59-.7c-.13-.16-.19-.25-.18-.26a23.06,23.06,0,0,0,3.54,2.86,15.44,15.44,0,0,0,19.92-2.84A23.32,23.32,0,0,0,292,274.45Z" style="fill:#263238"></path><path d="M215.53,195.55l-16.47,17.94a1.72,1.72,0,0,0-2.33,0c-1.31,1-17.89,12.8-18.77,15.13a10.62,10.62,0,0,0-.54,5.46c2.18,8.3,5.66,17.48,5.66,17.48l16.7-12.51-.53-3.15s13.38-5.73,13.35-6.72c0-.63-.26-19.26,5.16-25.55Z" style="fill:#455a64"></path><path d="M182.59,229.42a2.79,2.79,0,0,1,.77-.29,20.91,20.91,0,0,1,2.16-.51,15.49,15.49,0,0,1,7.32.3,9.81,9.81,0,0,1,5.66,4.55,6.56,6.56,0,0,1,.73,2.12,2.56,2.56,0,0,1,.05.82,11.84,11.84,0,0,0-1.06-2.78,10,10,0,0,0-5.52-4.28,16.73,16.73,0,0,0-7.13-.41C183.73,229.2,182.61,229.49,182.59,229.42Z" style="fill:#263238"></path><path d="M192.06,222.76s.22.08.57.29a10.89,10.89,0,0,1,1.4,1,15.34,15.34,0,0,1,5.23,9.95,10.81,10.81,0,0,1,.05,1.73,1.79,1.79,0,0,1-.08.64c-.08,0-.07-.91-.29-2.33a17.4,17.4,0,0,0-1.76-5.3,17.15,17.15,0,0,0-3.37-4.45C192.77,223.33,192,222.83,192.06,222.76Z" style="fill:#263238"></path><path d="M210.18,228.67c-.08,0-.31-1-.94-2.55a21.09,21.09,0,0,0-8.16-9.89c-1.41-.91-2.36-1.34-2.33-1.41a2.07,2.07,0,0,1,.7.23,12.89,12.89,0,0,1,1.8.9,19,19,0,0,1,5,4.3,19.33,19.33,0,0,1,3.27,5.76,14,14,0,0,1,.54,1.93A2.24,2.24,0,0,1,210.18,228.67Z" style="fill:#263238"></path><path d="M211.39,205.21c.13,0,.47,6,.77,13.4s.44,13.4.32,13.41-.47-6-.77-13.4S211.27,205.22,211.39,205.21Z" style="fill:#263238"></path><path d="M287.93,199.5c0,.07-1,.45-2.43,1.33a18.5,18.5,0,0,0-2.42,1.74,21.27,21.27,0,0,0-2.53,2.63,20.51,20.51,0,0,0-2,3.07,18.62,18.62,0,0,0-1.14,2.75c-.52,1.63-.65,2.69-.73,2.67a2.39,2.39,0,0,1,0-.75,12.68,12.68,0,0,1,.39-2,16.88,16.88,0,0,1,1.07-2.85,19.89,19.89,0,0,1,2-3.17,19.45,19.45,0,0,1,2.62-2.66,16.84,16.84,0,0,1,2.53-1.71,12,12,0,0,1,1.87-.84A2.29,2.29,0,0,1,287.93,199.5Z" style="fill:#263238"></path><g style="opacity:0.30000000000000004"><path d="M292.85,254a5.62,5.62,0,0,0-4.21-3.53,10.18,10.18,0,0,0-5.63.64c-2.62,1-4.42,1.71-5.43,3.85,2.34-1.55,2.69-1.86,5.26-2.13a10.45,10.45,0,0,1,7.28,2,4.59,4.59,0,0,0,1.25.8,1.24,1.24,0,0,0,1.37-.27A1.52,1.52,0,0,0,292.85,254Z"></path></g><g style="opacity:0.30000000000000004"><path d="M278.61,248.84c-1-5.78-1.3-17.51-1.93-23.34a177.46,177.46,0,0,0,.18,26.69v.13A38.86,38.86,0,0,0,278.61,248.84Z"></path></g><g style="opacity:0.30000000000000004"><path d="M200.94,215.49a10.84,10.84,0,0,1,8.74,11.22,28.58,28.58,0,0,0-9.39-11.31"></path></g><rect x="152.03" y="262.91" width="2.86" height="12.77" style="fill:#e0e0e0"></rect><path d="M320.9,263c0,.15-37.39.76-83.5,1.38s-83.5,1-83.51.86,37.38-.76,83.51-1.38S320.9,262.84,320.9,263Z" style="fill:#e0e0e0"></path><path d="M320.9,265.54c0,.14-37.39.76-83.5,1.38s-83.5,1-83.51.85,37.38-.76,83.51-1.37S320.9,265.4,320.9,265.54Z" style="fill:#e0e0e0"></path><path d="M320.9,267.88c0,.15-37.39.76-83.5,1.38s-83.5,1-83.51.85,37.38-.76,83.51-1.37S320.9,267.74,320.9,267.88Z" style="fill:#e0e0e0"></path><path d="M320.9,270.6c0,.14-37.39.76-83.5,1.38s-83.5,1-83.51.85,37.38-.76,83.51-1.37S320.9,270.46,320.9,270.6Z" style="fill:#e0e0e0"></path><path d="M190.86,255l2.34,15.78s.24,3.13,1.76,3.3c2.19.23,1.83-.33,1.83-.33l2.67,6.67s3.86,1.87,5.35,1.48c1.19-.32.47-2.42.47-2.42s1.44,1,3.29-1.06c.38-.42,1,3.43,2.46,4.06s3.75,2.07,1.55-6.64a133.87,133.87,0,0,1-2.87-13.67,4,4,0,0,0,.22-3.23c-.55-2.17-5.23-10.89-8.27-13.09L197,241.16l-10.94,8Z" style="fill:#ffbf9d"></path><path d="M204.46,266.34c.13,0,1,2.78,2.19,6.19s2.27,6.15,2.15,6.21a7.51,7.51,0,0,1-.88-1.72c-.49-1.09-1.11-2.62-1.71-4.34s-1.07-3.29-1.37-4.44A7.66,7.66,0,0,1,204.46,266.34Z" style="fill:#ff9a6c"></path><path d="M199.92,269.16a42.3,42.3,0,0,1,2.39,5.75,14.32,14.32,0,0,0,1.76,3.93,4.48,4.48,0,0,0,1.4,1c0,.06-.8,0-1.64-.83s-1.34-2.4-2-4A43.76,43.76,0,0,1,199.92,269.16Z" style="fill:#ff9a6c"></path><path d="M205.35,254A26.13,26.13,0,0,1,208,257.8a10.77,10.77,0,0,1,1.72,4.34c-.12,0-.78-1.93-2.12-4.11A22.77,22.77,0,0,1,205.35,254Z" style="fill:#ff9a6c"></path><path d="M261.67,267.74a2.46,2.46,0,0,0-1.55.61c-.48.58-.17,4.43.26,5.18a11.55,11.55,0,0,0,3.43,2.91,2.11,2.11,0,0,0,1.61-.62s2.82,2.09,5.51.67c0,0,2.41,2,4.12,2.09s5.91-1.84,5.91-1.84l2-3.52-6.85-.14-.91-3.11s1.2-4.11.74-5.15a1.85,1.85,0,0,0-3-.74,44.8,44.8,0,0,0-2.53,4l-1.06-2.24-.16-5.83a1.83,1.83,0,0,0-2-.9,3.3,3.3,0,0,0-.5-2.07,2,2,0,0,0-2.71.48,22.64,22.64,0,0,0-2.08,5.6C261.76,264,261.67,267.74,261.67,267.74Z" style="fill:#ffbf9d"></path><path d="M270.93,276.49a8.14,8.14,0,0,1-1.14-4.27,10.27,10.27,0,0,1,.57-4.38c.15,0-.22,2-.11,4.36A30.87,30.87,0,0,0,270.93,276.49Z" style="fill:#ff9a6c"></path><path d="M268.58,277.06a2.34,2.34,0,0,1-.45-.61,20.2,20.2,0,0,1-1-1.8,22.17,22.17,0,0,1-2.14-6.49,14,14,0,0,1,.54-6.8,5.62,5.62,0,0,1,1.07-1.8,1.78,1.78,0,0,1,.59-.48,7.48,7.48,0,0,0-1.35,2.39,14.93,14.93,0,0,0-.4,6.63,25.49,25.49,0,0,0,2,6.41C268.12,276.08,268.64,277,268.58,277.06Z" style="fill:#ff9a6c"></path><path d="M265.53,276a12.92,12.92,0,0,1-2.52-3.85,12,12,0,0,1-1.34-4.4c.14,0,.68,1.95,1.75,4.21S265.65,275.91,265.53,276Z" style="fill:#ff9a6c"></path><path d="M283.37,261a1,1,0,0,0,.92-1.4,10.5,10.5,0,0,0-1.71-3.07,6.64,6.64,0,0,0-4.15-1.77.9.9,0,0,0-.46.06l-6.22,2.33a2.4,2.4,0,0,0,1.08,4.64l.1,0c3.45-.52,5.74-1,5.74-1l.61.36Z" style="fill:#ffbf9d"></path><path d="M216.34,331.66a83.39,83.39,0,0,1-.9-9.27,81.35,81.35,0,0,1-.39-9.31,83.39,83.39,0,0,1,.9,9.27A81.35,81.35,0,0,1,216.34,331.66Z" style="fill:#455a64"></path><path d="M219.78,331.42a81.86,81.86,0,0,1-.91-9.27,84.19,84.19,0,0,1-.39-9.31,84.72,84.72,0,0,1,.91,9.27A84.19,84.19,0,0,1,219.78,331.42Z" style="fill:#455a64"></path><path d="M223.84,331.66a83.39,83.39,0,0,1-.9-9.27,81.35,81.35,0,0,1-.39-9.31,84.72,84.72,0,0,1,.91,9.27A82.59,82.59,0,0,1,223.84,331.66Z" style="fill:#455a64"></path><path d="M227.28,331.42a84.72,84.72,0,0,1-.91-9.27,84.19,84.19,0,0,1-.39-9.31,84.72,84.72,0,0,1,.91,9.27A84.19,84.19,0,0,1,227.28,331.42Z" style="fill:#455a64"></path><path d="M231.35,330.68a82.19,82.19,0,0,1-.91-9.27,81.4,81.4,0,0,1-.39-9.31,84.72,84.72,0,0,1,.91,9.27A87.25,87.25,0,0,1,231.35,330.68Z" style="fill:#455a64"></path><path d="M234.78,330.44a85.08,85.08,0,0,1-.91-9.27,84.25,84.25,0,0,1-.39-9.31,81.86,81.86,0,0,1,.91,9.27A84.19,84.19,0,0,1,234.78,330.44Z" style="fill:#455a64"></path><path d="M239,330a79.18,79.18,0,0,1-.91-9.27,81.35,81.35,0,0,1-.39-9.31,84.74,84.74,0,0,1,.91,9.28A87,87,0,0,1,239,330Z" style="fill:#455a64"></path><path d="M242.41,329.71a84.72,84.72,0,0,1-.91-9.27,84.19,84.19,0,0,1-.39-9.31,84.74,84.74,0,0,1,.91,9.28A84,84,0,0,1,242.41,329.71Z" style="fill:#455a64"></path><path d="M246.61,329.23a79.18,79.18,0,0,1-.91-9.27,81.35,81.35,0,0,1-.39-9.31,84.72,84.72,0,0,1,.91,9.27A87.25,87.25,0,0,1,246.61,329.23Z" style="fill:#455a64"></path><path d="M250,329a84.72,84.72,0,0,1-.91-9.27,84.19,84.19,0,0,1-.39-9.31,84.72,84.72,0,0,1,.91,9.27A84.19,84.19,0,0,1,250,329Z" style="fill:#455a64"></path><path d="M253.76,327.33a84.72,84.72,0,0,1-.91-9.27,84,84,0,0,1-.39-9.3,84.72,84.72,0,0,1,.91,9.27A84,84,0,0,1,253.76,327.33Z" style="fill:#455a64"></path><path d="M257.19,327.09a84.72,84.72,0,0,1-.91-9.27,87.09,87.09,0,0,1-.39-9.3,79.18,79.18,0,0,1,.91,9.27A81.2,81.2,0,0,1,257.19,327.09Z" style="fill:#455a64"></path><path d="M260.91,325.44a84.72,84.72,0,0,1-.91-9.27,87.25,87.25,0,0,1-.39-9.31,79.18,79.18,0,0,1,.91,9.27A81.35,81.35,0,0,1,260.91,325.44Z" style="fill:#455a64"></path><path d="M264.35,325.2a81.86,81.86,0,0,1-.91-9.27,84.19,84.19,0,0,1-.39-9.31,84.72,84.72,0,0,1,.91,9.27A84.19,84.19,0,0,1,264.35,325.2Z" style="fill:#455a64"></path><path d="M268.07,323.54a81.86,81.86,0,0,1-.91-9.27,84,84,0,0,1-.39-9.3,84.72,84.72,0,0,1,.91,9.27A84,84,0,0,1,268.07,323.54Z" style="fill:#455a64"></path><path d="M271.5,323.3a84.72,84.72,0,0,1-.91-9.27,84,84,0,0,1-.39-9.3,81.86,81.86,0,0,1,.91,9.27A84,84,0,0,1,271.5,323.3Z" style="fill:#455a64"></path><path d="M275.22,321.65a84.72,84.72,0,0,1-.91-9.27,84.19,84.19,0,0,1-.39-9.31,81.86,81.86,0,0,1,.91,9.27A84.19,84.19,0,0,1,275.22,321.65Z" style="fill:#455a64"></path><path d="M278.66,321.41a81.86,81.86,0,0,1-.91-9.27,81.35,81.35,0,0,1-.39-9.31,84.72,84.72,0,0,1,.91,9.27A87.25,87.25,0,0,1,278.66,321.41Z" style="fill:#455a64"></path><path d="M282.38,319.76a79.5,79.5,0,0,1-.91-9.27,81.4,81.4,0,0,1-.39-9.31,84.72,84.72,0,0,1,.91,9.27A87.25,87.25,0,0,1,282.38,319.76Z" style="fill:#455a64"></path><path d="M285.81,319.52a85.1,85.1,0,0,1-.91-9.28,84,84,0,0,1-.39-9.3,84.72,84.72,0,0,1,.91,9.27A84.19,84.19,0,0,1,285.81,319.52Z" style="fill:#455a64"></path></g><g id="freepik--character-1--inject-144"><polygon points="109.54 407.95 91.2 468.48 111.98 468.48 111.98 456.87 137.67 399.09 109.54 407.95" style="fill:#ffbf9d"></polygon><path d="M91.2,468.48s-1.69,5-.69,5.23c2.13.5,42.22,0,42.22,0s2.35-1.44-1.91-3-18.88-6.29-19.26-12.6l-18.12,6.67-2.24,3.75" style="fill:#ffbf9d"></path><path d="M58.1,157.23c-6.33,11-2.65,33.35-11.21,42.52-2.82,3-6.83,4.79-9.37,8C34.2,212,34,217.84,33.6,223.21s-1.61,11.31-6,14.4c-2.36,1.65-5.61,2.49-6.76,5.13-1.39,3.21,1.32,6.65,3.91,9q4.44,4,9.26,7.62c1.64,1.23,3.47,2.46,5.52,2.45,2.88,0,5.13-2.43,6.73-4.82s3.1-5.1,5.71-6.3c-1,5.31-1.79,11.36,1.55,15.61C55.35,268.67,58.19,270,61,271a51.46,51.46,0,0,0,35.29-.26l-6-62.24,12.47-12.88-.8-18Z" style="fill:#263238"></path><path d="M58.1,157.23a25.12,25.12,0,0,1,18.09-12.06c4.38-.63,6.31.05,9.57.5a14,14,0,0,1,8.56,4.22c2.64,2.9,5,6.22,5.89,10a65.73,65.73,0,0,1,2.08,11.87,22,22,0,0,1-2.3,11.69l-9.91,3c-5.57.9-11.21,1.81-16.82,1.22S62,184.89,58.45,180.49C53.56,174.37,53.94,163.87,58.1,157.23Z" style="fill:#263238"></path><path d="M67.1,156l12.82-7.08,3.58,0c7.94-1,14.53,7.08,15.39,13.51,1,7.13,1.86,15.88,1.4,21.29-.94,10.87-9.87,12.9-9.87,12.9l.94,8.92,1.69,12.23,4.36,14.74L81,236.41l-9.92-25.93L69.5,199.13,64,160.1A3.79,3.79,0,0,1,67.1,156Z" style="fill:#ffbf9d"></path><path d="M84.09,183.23a2.28,2.28,0,0,1,.61-1.49,2.32,2.32,0,0,1,2.77-.51A3.11,3.11,0,0,1,89,184h0a2.85,2.85,0,0,1-1.86,1.42l-.38,0A2.5,2.5,0,0,1,85,185,2.29,2.29,0,0,1,84.09,183.23Z" style="fill:#ff9a6c"></path><path d="M95,172.27a1.37,1.37,0,0,1-1.23,1.48,1.32,1.32,0,0,1-1.51-1.14,1.4,1.4,0,0,1,1.23-1.49A1.32,1.32,0,0,1,95,172.27Z" style="fill:#263238"></path><path d="M96.93,166.28c-.16.2-1.26-.5-2.74-.39s-2.52.93-2.7.76.07-.42.52-.8a3.88,3.88,0,0,1,2.14-.83,3.71,3.71,0,0,1,2.2.54C96.83,165.88,97,166.2,96.93,166.28Z" style="fill:#263238"></path><path d="M88.92,179a10.19,10.19,0,0,1,2.38-.61c.38-.06.73-.16.78-.43a1.9,1.9,0,0,0-.34-1.1l-1.32-2.81c-1.85-4-3.22-7.29-3.06-7.36s1.79,3.1,3.64,7.1c.45,1,.88,1.93,1.28,2.83a2.18,2.18,0,0,1,.31,1.47,1,1,0,0,1-.59.6,2.36,2.36,0,0,1-.63.13A10,10,0,0,1,88.92,179Z" style="fill:#263238"></path><path d="M90.44,196.58a27.34,27.34,0,0,1-14.67-2.81s4.27,7.49,15,5.72Z" style="fill:#ff9a6c"></path><path d="M84.63,180.38c.24,0,.36,1.58,1.82,2.62s3.16.75,3.19,1-.36.34-1.08.41a4,4,0,0,1-2.66-.71,3.49,3.49,0,0,1-1.42-2.21C84.37,180.79,84.52,180.38,84.63,180.38Z" style="fill:#263238"></path><path d="M95.77,161.19c-.22.38-1.38.21-2.7.42s-2.39.63-2.71.33c-.14-.15,0-.52.42-.91a4,4,0,0,1,2.09-.92,4.06,4.06,0,0,1,2.26.31C95.66,160.69,95.87,161,95.77,161.19Z" style="fill:#263238"></path><path d="M78.6,173.41a1.37,1.37,0,0,0,1.47,1.24,1.33,1.33,0,0,0,1.29-1.39A1.39,1.39,0,0,0,79.88,172,1.31,1.31,0,0,0,78.6,173.41Z" style="fill:#263238"></path><path d="M76.91,168.24c.19.16,1.15-.72,2.63-.88s2.64.46,2.78.27-.14-.4-.65-.69a3.75,3.75,0,0,0-2.25-.43,3.6,3.6,0,0,0-2.06.92C76.94,167.83,76.82,168.17,76.91,168.24Z" style="fill:#263238"></path><path d="M77.2,163.41c.33.3,1.43-.17,2.8-.34s2.56,0,2.79-.43c.1-.18-.12-.5-.67-.76a4.5,4.5,0,0,0-4.5.62C77.17,162.89,77.05,163.26,77.2,163.41Z" style="fill:#263238"></path><path d="M68.1,177.81c-.06-.8-1.12-2.62-1.92-2.69-2.13-.18-5.93.26-5.58,5.63.48,7.33,7.74,5.34,7.74,5.13S68.31,180.57,68.1,177.81Z" style="fill:#ffbf9d"></path><path d="M66.14,183.33s-.12.1-.33.21a1.3,1.3,0,0,1-1,.09,3.2,3.2,0,0,1-1.65-2.75,4.29,4.29,0,0,1,.24-1.85,1.46,1.46,0,0,1,.9-1,.66.66,0,0,1,.78.3c.11.2.07.35.11.36s.15-.14.07-.43a.83.83,0,0,0-.32-.45,1,1,0,0,0-.72-.14A1.82,1.82,0,0,0,63,178.86a4.37,4.37,0,0,0-.31,2.07c.14,1.48,1,2.81,2.07,3a1.4,1.4,0,0,0,1.16-.27C66.14,183.51,66.17,183.34,66.14,183.33Z" style="fill:#ff9a6c"></path><path d="M65.89,175.18,68,176.86c7-8.65,20.19-29.77,19.47-28.52a23.53,23.53,0,0,0-11.57.21c-5.81,1.76-16.69,6.16-15.63,13.14S65.89,175.18,65.89,175.18Z" style="fill:#263238"></path><path d="M56.34,159.33q21.07-.62,42.08-2.78c.79-.08.8-1.33,0-1.25q-21,2.17-42.08,2.78a.63.63,0,0,0,0,1.25Z" style="fill:#6f4439"></path><path d="M65.72,185.33a62.9,62.9,0,0,0-7.78,8.86,21,21,0,0,0-3.9,11,56.91,56.91,0,0,0,11.48-19.82" style="fill:#38B6FF"></path><path d="M66.06,417.07c-2.23-.22-18.64,11.66-25.36,16.6a4.94,4.94,0,0,0-1.76,5.51c2,6.18,6.44,19.17,9.35,24.69,3.19,6.06,7.87,5.86,9.48,3.62s1.72-6,.53-14.67-1-10.61,0-12S82,426.56,82,426.56l-17.88-9.5" style="fill:#ffbf9d"></path><path d="M89.39,209.56l27.49-29.18-4-34.81,9.66-2.14s13.28,36.43,10.12,43.45-32.28,37.2-32.28,37.2Z" style="fill:#ffbf9d"></path><path d="M123.07,135.64l-.61-5.79s1.45-4.46.77-5.79-1.28-.85-1.28-.85c-.52-2.65-1.78-1.94-1.78-1.94s.23-2.51-1.72-2.88c-1.13-.22-4.6,8.94-4.6,8.94a2.87,2.87,0,0,1-1.74-1.37c-.53-1.08,1.74-6.44,1.51-8.24a2.23,2.23,0,0,0-2-2s-4.33,11.32-3.71,14,3.58,15.31,5.67,17.51l8.87-2.57a20.08,20.08,0,0,0,1-2.1C124.39,140.68,123.07,135.64,123.07,135.64Z" style="fill:#ffbf9d"></path><path d="M120,141.67s0-.47.06-1.29a10,10,0,0,0-.5-3.41,9.64,9.64,0,0,0-1-2.14,9.27,9.27,0,0,0-.78-1.06,11,11,0,0,1-.93-1.13,2.11,2.11,0,0,1-.39-1.6,8.88,8.88,0,0,1,.48-1.54,9.34,9.34,0,0,0,.94-3.06,3.48,3.48,0,0,0-.49-2c-.32-.55-.94-1-1.4-.79l.13-.13c-1.36,3.2-2.21,6.12-2.87,8.17-.31.95-.56,1.75-.77,2.41a3.94,3.94,0,0,1-.34.85,4.08,4.08,0,0,1,.17-.9c.14-.58.35-1.41.63-2.45a68.81,68.81,0,0,1,2.72-8.28l0-.09.09,0a1.38,1.38,0,0,1,1.21.14,2.41,2.41,0,0,1,.82.83,3.93,3.93,0,0,1,.58,2.25,5.73,5.73,0,0,1-.36,1.71l-.62,1.51a7.19,7.19,0,0,0-.47,1.45,1.63,1.63,0,0,0,.3,1.25,10,10,0,0,0,.88,1.09,11.19,11.19,0,0,1,.8,1.13,9.79,9.79,0,0,1,1,2.26,9.31,9.31,0,0,1,.35,3.53A4.07,4.07,0,0,1,120,141.67Z" style="fill:#ff9a6c"></path><path d="M117.29,129.58a5.19,5.19,0,0,1,2.28,1.14c1.16.81,2,1.65,1.86,1.76a8.2,8.2,0,0,1-2.16-1.33C118.14,130.35,117.22,129.71,117.29,129.58Z" style="fill:#ff9a6c"></path><path d="M121.64,123.69a15.8,15.8,0,0,1-.83,3.41,15.86,15.86,0,0,1-1.08,3.34,9.76,9.76,0,0,1,.58-3.48A9.53,9.53,0,0,1,121.64,123.69Z" style="fill:#ff9a6c"></path><path d="M120.4,120.56a19.9,19.9,0,0,1-1.1,4.32,20,20,0,0,1-1.58,4.16,19,19,0,0,1,1.09-4.32A19.08,19.08,0,0,1,120.4,120.56Z" style="fill:#ff9a6c"></path><path d="M111.13,127.1c0-.14.75-.13,1.61.12s1.47.63,1.42.76-.74,0-1.57-.26S111.1,127.24,111.13,127.1Z" style="fill:#ff9a6c"></path><path d="M67,225.61c.34,6.27,3.5,24,6.36,31,4.25,10.42-12.4,25.86-12,42.91s22.87,84.2,23.3,92.3-28.57,29-28.57,29,8.54,12.8,28.57,14.5,26-6.82,48.18-19.19,29.85-21.74,38-13.22,29.85-9.8,29.85-26.43,5.54-28.14,18.33-30.7,14.93-11.94,14.93-11.94-27.76-13.29-69-14.05a40.65,40.65,0,0,1-18.09-4.51,24.21,24.21,0,0,1-8-6.17c-6-7.68-24.3-26.87-28.14-39.23,0,0,1.38-28.77-.75-42.42-1.4-9-7.66-16.28-17.81-22-7.26-4.06-14.55-6.94-20-1.75C65.88,209.76,66.15,219.88,67,225.61Z" style="fill:#38B6FF"></path><path d="M105.71,257.17c-.49-1.46-13.64-42.26-16.32-47.61s-9.56-7.57-13-6.11-10.94,12-6.35,22.37l.84,1.74c-.25.24,17.3,33.82,21.68,40.14S125.78,296,125.78,296l4.4-6.25S106.2,258.63,105.71,257.17Z" style="fill:#ffbf9d"></path><path d="M173.88,377.49a2.33,2.33,0,0,1-.57-.32l-1.59-1c-1.37-.87-3.32-2.2-5.69-3.9s-5.13-3.8-8.13-6.23-6.17-5.23-9.41-8.29-6.17-6.12-8.77-9-4.84-5.5-6.66-7.78-3.25-4.15-4.19-5.48L127.78,334a3.83,3.83,0,0,1-.35-.55,3.74,3.74,0,0,1,.43.49l1.17,1.47c1,1.29,2.46,3.13,4.32,5.37s4.12,4.85,6.72,7.69,5.57,5.84,8.78,8.9,6.41,5.83,9.36,8.3,5.69,4.58,8,6.3,4.26,3.11,5.6,4l1.53,1.08A4.43,4.43,0,0,1,173.88,377.49Z" style="fill:#263238"></path><path d="M182.53,353.79a10.46,10.46,0,0,1-1.51-.47c-1-.33-2.35-.84-4.05-1.51-3.39-1.33-8-3.33-13-5.83s-9.33-5-12.43-7c-1.54-1-2.78-1.77-3.62-2.35a9.85,9.85,0,0,1-1.28-.94,10.07,10.07,0,0,1,1.39.77l3.7,2.2c3.14,1.85,7.52,4.32,12.48,6.82s9.55,4.53,12.9,6l4,1.66A8.33,8.33,0,0,1,182.53,353.79Z" style="fill:#263238"></path><path d="M130.18,289.76s10,7.71,11.3,10,0,12.11,0,12.11l-7.11-8.07L125.78,296Z" style="fill:#ffbf9d"></path><path d="M111.86,413.89a.76.76,0,0,1,.09-.23c.08-.18.19-.4.31-.67a22.11,22.11,0,0,1,1.39-2.44,59.45,59.45,0,0,1,6.72-7.86,48.64,48.64,0,0,0,4.56-5.43,18.06,18.06,0,0,0,3.12-7.37,24.07,24.07,0,0,0-.52-8.88c-.63-3.07-1.42-6.21-2.3-9.42-1.76-6.41-3.68-12.45-5.39-17.95s-3.27-10.46-4.49-14.64-2.14-7.6-2.7-10c-.3-1.18-.48-2.11-.62-2.74,0-.29-.1-.52-.14-.71a.8.8,0,0,1,0-.25.75.75,0,0,1,.08.24c.06.18.12.42.2.7.17.62.38,1.54.7,2.71.62,2.36,1.59,5.75,2.86,9.92s2.85,9.11,4.6,14.61S124,365,125.73,371.45c.88,3.22,1.67,6.37,2.29,9.45a24.36,24.36,0,0,1,.51,9.07,18.47,18.47,0,0,1-3.25,7.54,47.47,47.47,0,0,1-4.65,5.44,65.21,65.21,0,0,0-6.81,7.71,24.79,24.79,0,0,0-1.46,2.38l-.36.64A.87.87,0,0,1,111.86,413.89Z" style="fill:#263238"></path></g></svg>
